<?xml version="1.0" encoding="UTF-8"?>
<svg width="60px" height="60px" viewBox="0 0 60 60" version="1.1" xmlns="http://www.w3.org/2000/svg" xmlns:xlink="http://www.w3.org/1999/xlink">
    <!-- Generator: Sketch 46.2 (44496) - http://www.bohemiancoding.com/sketch -->
    <title>icon-handy-tablet</title>
    <desc>Created with Sketch.</desc>
    <defs></defs>
    <g id="Styleguide" stroke="none" stroke-width="1" fill="none" fill-rule="evenodd">
        <g transform="translate(-150.000000, -1871.000000)" id="Category-/-Handy">
            <g transform="translate(150.000000, 1871.000000)">
                <circle id="Oval-Copy-4" stroke="#1975AE" stroke-width="2" cx="30" cy="30" r="29"></circle>
                <path d="M45.1562647,14.0704412 L29.5739118,14.0704412 C28.2512647,14.0704412 27.1774412,15.1442647 27.1774412,16.4669118 L27.1774412,35.6457353 C27.1774412,36.9683824 28.2512647,38.0422059 29.5739118,38.0422059 L45.1562647,38.0422059 C46.4789118,38.0422059 47.5527353,36.9683824 47.5527353,35.6457353 L47.5527353,16.4669118 C47.5527353,15.1442647 46.4789118,14.0704412 45.1562647,14.0704412 L45.1562647,14.0704412 Z M37.3668529,36.8422059 C36.7050882,36.8422059 36.1668529,36.3075 36.1668529,35.6457353 C36.1668529,34.9848529 36.7050882,34.4457353 37.3668529,34.4457353 C38.0277353,34.4457353 38.5633235,34.9848529 38.5633235,35.6457353 C38.5633235,36.3075 38.0277353,36.8422059 37.3668529,36.8422059 L37.3668529,36.8422059 Z M29.5739118,33.2466176 L45.1562647,33.2466176 L45.1562647,16.4669118 L29.5739118,16.4669118 L29.5739118,33.2466176 Z" id="Fill-1" fill="#1975AE" fill-rule="evenodd"></path>
                <path d="M22.6824706,21.0543529 L13.0930588,21.0543529 C11.7704118,21.0543529 10.6965882,22.1281765 10.6965882,23.4508235 L10.6965882,42.6296471 C10.6965882,43.9522941 11.7704118,45.0261176 13.0930588,45.0261176 L22.6824706,45.0261176 C24.0051176,45.0261176 25.0789412,43.9522941 25.0789412,42.6296471 L25.0789412,23.4508235 C25.0789412,22.1281765 24.0051176,21.0543529 22.6824706,21.0543529 L22.6824706,21.0543529 Z M17.8895294,43.8261176 C17.2277647,43.8261176 16.6895294,43.2914118 16.6895294,42.6296471 C16.6895294,41.9687647 17.2277647,41.4296471 17.8895294,41.4296471 C18.5504118,41.4296471 19.086,41.9687647 19.086,42.6296471 C19.086,43.2914118 18.5504118,43.8261176 17.8895294,43.8261176 L17.8895294,43.8261176 Z M13.0930588,40.2305294 L22.6824706,40.2305294 L22.6824706,23.4508235 L13.0930588,23.4508235 L13.0930588,40.2305294 Z" id="Fill-4" fill="#1975AE" fill-rule="evenodd"></path>
            </g>
        </g>
    </g>
</svg>