<?xml version="1.0" encoding="UTF-8"?>
<svg width="60px" height="60px" viewBox="0 0 60 60" version="1.1" xmlns="http://www.w3.org/2000/svg" xmlns:xlink="http://www.w3.org/1999/xlink">
    <!-- Generator: Sketch 46.2 (44496) - http://www.bohemiancoding.com/sketch -->
    <title>icon-leder</title>
    <desc>Created with Sketch.</desc>
    <defs></defs>
    <g id="Styleguide" stroke="none" stroke-width="1" fill="none" fill-rule="evenodd">
        <g transform="translate(-150.000000, -1951.000000)" id="Category-/-Leder">
            <g transform="translate(150.000000, 1951.000000)">
                <circle id="Oval-Copy-11" stroke="#1975AE" stroke-width="2" cx="30" cy="30" r="29"></circle>
                <g id="noun_30001" stroke-width="1" fill-rule="evenodd" transform="translate(16.000000, 13.000000)" fill="#1975AE">
                    <path d="M28.4598889,26.6284222 C28.4058667,26.5929111 23.0773111,23.0172444 23.1846,17.4718444 C23.3058667,11.1308444 28.0677556,10.2162444 28.2706222,10.1803556 C28.3412667,10.1678889 28.4036,10.1259556 28.4413778,10.0651333 C28.4799111,10.0043111 28.4904889,9.92988889 28.4704667,9.86075556 L27.1648667,5.29417778 C27.1338889,5.18537778 27.0341556,5.1102 26.9208222,5.1102 C19.6950667,5.1102 18.5624889,0.536822222 18.5175333,0.341888889 C18.4914667,0.226666667 18.3883333,0.144688889 18.2704667,0.144688889 L10.5320667,0.144688889 C10.4134444,0.144688889 10.3106889,0.227044444 10.2846222,0.342644444 C10.2736667,0.390244444 9.12862222,5.1102 1.88095556,5.1102 C1.76762222,5.1102 1.66826667,5.18537778 1.63691111,5.29417778 L0.331311111,9.86075556 C0.311666667,9.92988889 0.322244444,10.0043111 0.3604,10.0655111 C0.398933333,10.1263333 0.461266667,10.1682667 0.531911111,10.1807333 C0.5814,10.1890444 5.49591111,11.1153556 5.61755556,17.4722222 C5.72484444,23.018 0.396288889,26.5936667 0.342266667,26.6288 C0.282955556,26.6680889 0.242533333,26.7300444 0.231577778,26.8003111 C0.220244444,26.8705778 0.239133333,26.9419778 0.282955556,26.9975111 L3.62062222,31.2176667 C3.706,31.3260889 3.8624,31.3461111 3.97271111,31.2626222 C3.99008889,31.2494 5.74637778,29.9456889 8.65564444,29.9456889 C9.04173333,29.9456889 9.43651111,29.9691111 9.82864444,30.0148222 C12.3265111,30.3064667 14.1621333,33.4888667 14.1802667,33.5209778 C14.2256,33.6003111 14.3094667,33.6494222 14.4008889,33.6494222 C14.4923111,33.6494222 14.5765556,33.6003111 14.6215111,33.5209778 C14.6396444,33.4888667 16.4711111,30.3068444 18.9735111,30.0148222 C19.3656444,29.9691111 19.7600444,29.9456889 20.1461333,29.9456889 C23.0448222,29.9456889 24.8120667,31.2497778 24.8294444,31.263 C24.939,31.3449778 25.0954,31.3260889 25.1811556,31.2176667 L28.5188222,26.9975111 C28.5630222,26.9419778 28.5815333,26.8702 28.5705778,26.8003111 C28.5596222,26.7296667 28.5192,26.6677111 28.4598889,26.6284222 Z" id="Shape" fill-rule="nonzero"></path>
                </g>
            </g>
        </g>
    </g>
</svg>