<?xml version="1.0" encoding="UTF-8"?>
<svg width="60px" height="60px" viewBox="0 0 60 60" version="1.1" xmlns="http://www.w3.org/2000/svg" xmlns:xlink="http://www.w3.org/1999/xlink">
    <!-- Generator: Sketch 46.2 (44496) - http://www.bohemiancoding.com/sketch -->
    <title>icon-upcycling</title>
    <desc>Created with Sketch.</desc>
    <defs></defs>
    <g id="Styleguide" stroke="none" stroke-width="1" fill="none" fill-rule="evenodd">
        <g transform="translate(-930.000000, -1791.000000)" id="Category-/-Basteln">
            <g transform="translate(930.000000, 1791.000000)">
                <circle id="Oval-Copy-8" stroke="#1975AE" stroke-width="2" cx="30" cy="30" r="29"></circle>
                <path d="M7.0605,29.1171176 L12.5584412,34.6141765 L12.9272647,34.9838824 L18.4243235,40.4809412 C18.6343235,40.6909412 18.9740294,40.6909412 19.1831471,40.4809412 L20.9460882,38.718 C21.1552059,38.5088824 21.1552059,38.1691765 20.9460882,37.9600588 L16.9702059,33.9815294 C16.6578529,33.6700588 16.6578529,33.1644706 16.9702059,32.8521176 C17.2816765,32.5406471 17.7872647,32.5406471 18.0987353,32.8521176 L21.5169706,36.2712353 C24.4816765,30.6118235 36.3360882,20.5794706 35.5340294,18.2050588 C35.3875588,17.7727059 35.1157941,17.208 34.2113824,16.1500588 C34.2113824,16.1500588 33.8637353,15.7018235 32.8525588,14.6897647 C31.8405,13.6777059 31.3913824,13.3309412 31.3913824,13.3309412 C30.3334412,12.4265294 29.7696176,12.1547647 29.3363824,12.0082941 C26.7096176,11.1197647 14.7113824,25.7227059 9.62902941,26.6421176 L9.58226471,26.5953529 C9.37226471,26.3862353 9.03344118,26.3862353 8.82344118,26.5953529 L7.0605,28.3591765 C6.85138235,28.5682941 6.85138235,28.908 7.0605,29.1171176" id="Fill-1" fill="#1975AE" fill-rule="evenodd"></path>
                <path d="M37.1460882,13.002 C37.3234412,12.7928824 37.3102059,12.4822941 37.1169706,12.2890588 L35.2516765,10.4246471 C35.0584412,10.2305294 34.7487353,10.2181765 34.5396176,10.3955294 C34.5396176,10.3955294 31.8669706,12.5696471 31.8555,12.582 L34.9605,15.687 C34.9613824,15.6852353 37.1460882,13.002 37.1460882,13.002" id="Fill-3" fill="#1975AE" fill-rule="evenodd"></path>
                <polygon id="Fill-7" fill="#1975AE" fill-rule="evenodd" points="23.8794755 48.0994412 17.4755294 48.0994412 17.4755294 50.7456176 44 50.7456176 44 48.0994412"></polygon>
                <path d="M26.9306471,46.1766176 C27.3577059,46.6036765 28.0291765,46.6627941 28.5241765,46.3177941 L36.2791765,40.9125 C36.3532941,40.8613235 36.4212353,40.8013235 36.483,40.7351471 L50.4532941,25.5904412 C50.9068235,25.0980882 50.8909412,24.3366176 50.418,23.8636765 L45.3656471,18.8113235 C44.8927059,18.3383824 44.1312353,18.3233824 43.6397647,18.7769118 L28.4941765,32.7472059 C28.428,32.8080882 28.368,32.8760294 28.3168235,32.9501471 L22.9115294,40.7051471 C22.5665294,41.2010294 22.6265294,41.8725 23.0535882,42.2995588 L26.9306471,46.1766176 Z M41.8706471,24.9560294 L44.2732941,27.3586765 L33.7132941,37.9195588 L31.3097647,35.5160294 L41.8706471,24.9560294 Z" id="Fill-8" fill="#1975AE" fill-rule="evenodd"></path>
                <path d="M25.8900882,46.7214706 C25.9650882,46.4497059 25.8892059,46.1585294 25.6897941,45.96 L23.2695,43.5397059 C22.9650882,43.2344118 22.4700882,43.2344118 22.1647941,43.5397059 L19.1136176,46.5908824 C18.9521471,46.7523529 18.8771471,46.9676471 18.8868529,47.1794118 L25.5406765,47.1794118 C25.7092059,47.0779412 25.8362647,46.9164706 25.8900882,46.7214706" id="Fill-11" fill="#1975AE" fill-rule="evenodd"></path>
            </g>
        </g>
    </g>
</svg>