<?xml version="1.0" encoding="UTF-8"?>
<svg width="60px" height="60px" viewBox="0 0 60 60" version="1.1" xmlns="http://www.w3.org/2000/svg" xmlns:xlink="http://www.w3.org/1999/xlink">
    <!-- Generator: Sketch 46.2 (44496) - http://www.bohemiancoding.com/sketch -->
    <title>icon-haushaltsgeraete</title>
    <desc>Created with Sketch.</desc>
    <defs></defs>
    <g id="Styleguide" stroke="none" stroke-width="1" fill="none" fill-rule="evenodd">
        <g transform="translate(-930.000000, -1631.000000)" id="Category-/-Haushaltsgerate">
            <g transform="translate(930.000000, 1631.000000)">
                <circle id="Oval-Copy-12" stroke="#1975AE" stroke-width="2" cx="30" cy="30" r="29"></circle>
                <path d="M44.4603529,12.8356765 C41.5327059,11.1468529 37.503,11.0780294 33.9400588,12.6495 C30.6418235,14.1080294 28.2621176,17.3197941 26.8582941,19.7312647 C26.2265294,19.5795 25.5488824,19.8786176 25.2559412,20.4909706 C24.9744706,21.0750882 25.1394706,21.7571471 25.6071176,22.1612647 C25.4765294,22.4480294 25.4006471,22.6368529 25.3697647,22.7118529 L18.5465294,37.7030294 C17.8591765,37.3862647 17.0368235,37.6686176 16.6962353,38.3533235 C16.353,39.0477353 16.6344706,39.8939118 17.3324118,40.2415588 L17.3774118,40.2653824 L15.8438824,43.6386176 L12.0303529,43.6386176 C11.253,43.6386176 10.6194706,44.2686176 10.6194706,45.0459706 C10.6194706,45.8224412 11.253,46.4550882 12.0303529,46.4550882 L19.0732941,46.4550882 C19.8497647,46.4550882 20.4797647,45.8224412 20.4797647,45.0459706 C20.4797647,44.2686176 19.8497647,43.6386176 19.0732941,43.6386176 L18.9382941,43.6386176 L19.9159412,41.4936176 C20.0465294,41.5306765 20.1762353,41.5553824 20.3041765,41.5553824 C20.8238824,41.5553824 21.3215294,41.2695 21.5703529,40.7745 C21.8897647,40.1242059 21.663,39.3503824 21.0638824,38.9683235 L28.1377059,23.4345 C28.3274118,23.5200882 28.5268235,23.5650882 28.7262353,23.5650882 C29.2485882,23.5650882 29.7541765,23.2730294 29.9959412,22.7674412 C30.3188824,22.0968529 30.0568235,21.2992059 29.418,20.9383235 C30.6250588,18.9053824 32.5538824,16.3430294 35.0782941,15.2286176 C37.7915294,14.0286176 40.9212353,14.0462647 43.0503529,15.2771471 C44.6182941,16.1789118 45.5156471,17.6153824 45.7256471,19.5486176 C46.1209412,23.1697941 45.7874118,25.5980294 44.7382941,26.7636176 C44.643,26.8739118 44.5353529,26.9665588 44.4285882,27.0521471 L44.4285882,30.2056765 C45.2959412,29.9136176 46.128,29.4353824 46.8365294,28.6447941 C48.4627059,26.8324412 49.0168235,23.7574412 48.5288824,19.2459706 C48.2253529,16.4497941 46.7774118,14.1733235 44.4603529,12.8356765" id="Fill-1" fill="#1975AE" fill-rule="evenodd"></path>
                <path d="M40.4467059,36.5957647 C41.3687647,36.5957647 42.2352353,36.8048824 43.0196471,37.1701765 L43.0196471,26.0313529 C43.0196471,25.2504706 43.0911176,25.3254706 42.3137647,25.3254706 L39.5555294,25.3254706 C38.7746471,25.3254706 30.927,25.9731176 28.8534706,36.2207647 L27.5228824,44.6948824 C27.5228824,45.4722353 28.152,46.4551765 28.9328824,46.4551765 L35.6184706,46.4551765 C34.8128824,45.4201765 34.3284706,44.124 34.3284706,42.714 C34.3284706,39.3398824 37.0725882,36.5957647 40.4467059,36.5957647" id="Fill-4" fill="#1975AE" fill-rule="evenodd"></path>
                <path d="M43.7243824,39.3363529 C43.5073235,39.1272353 43.2699706,38.9375294 43.0193824,38.7725294 C42.2799706,38.2881176 41.3958529,38.0022353 40.4464412,38.0022353 C37.8505588,38.0022353 35.7382059,40.1172353 35.7382059,42.714 C35.7382059,44.2413529 36.4705588,45.5957647 37.5990882,46.4551765 C37.9908529,46.7542941 38.4311471,46.9960588 38.9058529,47.1601765 C39.3911471,47.3287059 39.9073235,47.4257647 40.4464412,47.4257647 C40.9864412,47.4257647 41.5061471,47.3287059 41.9870294,47.1601765 C42.4855588,46.9854706 42.9505588,46.7304706 43.3564412,46.4101765 C43.7376176,46.1119412 44.0746765,45.7537059 44.3490882,45.3478235 C44.8590882,44.5951765 45.1573235,43.6872353 45.1573235,42.714 C45.1573235,41.7919412 44.8899706,40.9325294 44.4285,40.2072353 C44.2264412,39.8869412 43.9917353,39.594 43.7243824,39.3363529 M40.4464412,40.3510588 C41.7532059,40.3510588 42.8085,41.4107647 42.8085,42.714 C42.8085,44.0172353 41.7532059,45.0769412 40.4464412,45.0769412 C39.1432059,45.0769412 38.0835,44.0172353 38.0835,42.714 C38.0835,41.4107647 39.1432059,40.3510588 40.4464412,40.3510588" id="Fill-6" fill="#1975AE" fill-rule="evenodd"></path>
            </g>
        </g>
    </g>
</svg>