<?xml version="1.0" encoding="UTF-8"?>
<svg width="60px" height="60px" viewBox="0 0 60 60" version="1.1" xmlns="http://www.w3.org/2000/svg" xmlns:xlink="http://www.w3.org/1999/xlink">
    <!-- Generator: Sketch 46.2 (44496) - http://www.bohemiancoding.com/sketch -->
    <title>icon-textilien</title>
    <desc>Created with Sketch.</desc>
    <defs></defs>
    <g id="Styleguide" stroke="none" stroke-width="1" fill="none" fill-rule="evenodd">
        <g transform="translate(-930.000000, -1711.000000)" id="Category-/-Textilien">
            <g transform="translate(930.000000, 1711.000000)">
                <circle id="Oval-Copy-7" stroke="#1975AE" stroke-width="2" cx="30" cy="30" r="29"></circle>
                <path d="M44.7509118,34.0301471 L42.8962059,34.0301471 C42.9315,33.5942647 42.9544412,33.0763235 42.9544412,32.5345588 L42.9544412,27.0075 C41.7138529,26.6263235 41.7112059,24.9233824 41.7112059,24.3180882 C41.7112059,24.0630882 41.7138529,23.6589706 41.7835588,23.2442647 C41.8956176,22.5710294 42.1841471,21.8598529 42.9456176,21.6313235 C42.9482647,21.6313235 42.9517941,21.6313235 42.9544412,21.6286765 L42.9544412,17.2513235 C42.9544412,16.5869118 42.4479706,16.0513235 41.8215,16.0513235 L16.3162059,16.0513235 C15.6932647,16.0513235 15.3862059,16.5869118 15.3862059,17.2513235 L15.3862059,22.0442647 C15.3862059,22.7060294 15.6932647,23.2442647 16.3162059,23.2442647 L35.1615,23.2442647 L35.1615,32.5345588 C35.1615,33.0763235 35.1703235,33.5942647 35.1915,34.0301471 L13.5897353,34.0301471 C12.9253235,34.0301471 12.3897353,34.5657353 12.3897353,35.2301471 L12.3897353,41.2230882 L45.9509118,41.2230882 L45.9509118,35.2301471 C45.9509118,34.5657353 45.4153235,34.0301471 44.7509118,34.0301471 M25.7247353,21.2722059 C24.7938529,21.2722059 24.0420882,20.5195588 24.0420882,19.5895588 C24.0420882,18.6577941 24.7938529,17.9069118 25.7247353,17.9069118 C26.6520882,17.9069118 27.4073824,18.6577941 27.4073824,19.5895588 C27.4073824,20.5195588 26.6520882,21.2722059 25.7247353,21.2722059 M31.1176765,21.2722059 C30.1867941,21.2722059 29.4350294,20.5195588 29.4350294,19.5895588 C29.4350294,18.6577941 30.1867941,17.9069118 31.1176765,17.9069118 C32.0476765,17.9069118 32.8003235,18.6577941 32.8003235,19.5895588 C32.8003235,20.5195588 32.0476765,21.2722059 31.1176765,21.2722059" id="Fill-1" fill="#1975AE" fill-rule="evenodd"></path>
                <path d="M42.5476765,24.3177353 C42.5476765,25.3624412 42.7347353,25.8389118 42.9544412,26.0586176 C43.1388529,26.2456765 43.3488529,26.2456765 43.4873824,26.2456765 C44.5523824,26.2456765 45.4179706,25.3827353 45.4179706,24.3177353 C45.4179706,23.2553824 44.5523824,22.3897941 43.4873824,22.3897941 C43.2967941,22.3897941 43.1097353,22.4277353 42.9544412,22.5742059 C42.7135588,22.8018529 42.5476765,23.2906765 42.5476765,24.3177353" id="Fill-4" fill="#1975AE" fill-rule="evenodd"></path>
                <path d="M22.2771176,24.1424118 C22.2771176,23.9756471 22.143,23.8406471 21.9788824,23.8406471 L17.7824118,23.8406471 C17.6182941,23.8406471 17.4841765,23.9756471 17.4841765,24.1424118 C17.4841765,24.3065294 17.6182941,24.4406471 17.7824118,24.4406471 L21.9788824,24.4406471 C22.143,24.4406471 22.2771176,24.3065294 22.2771176,24.1424118" id="Fill-6" fill="#1975AE" fill-rule="evenodd"></path>
                <path d="M19.8806471,32.5318235 C20.0474118,32.5318235 20.1788824,32.3968235 20.1788824,32.2335882 L20.1788824,29.4797647 C20.5274118,29.3571176 20.7788824,29.0262353 20.7788824,28.6371176 L20.7788824,25.0406471 L18.9824118,25.0406471 L18.9824118,28.6371176 C18.9824118,29.0262353 19.2338824,29.3571176 19.5824118,29.4797647 L19.5824118,32.2335882 C19.5824118,32.3968235 19.7138824,32.5318235 19.8806471,32.5318235" id="Fill-8" fill="#1975AE" fill-rule="evenodd"></path>
            </g>
        </g>
    </g>
</svg>