<?xml version="1.0" encoding="UTF-8"?>
<svg width="60px" height="60px" viewBox="0 0 60 60" version="1.1" xmlns="http://www.w3.org/2000/svg" xmlns:xlink="http://www.w3.org/1999/xlink">
    <!-- Generator: Sketch 46.2 (44496) - http://www.bohemiancoding.com/sketch -->
    <title>icon-moebel</title>
    <desc>Created with Sketch.</desc>
    <defs></defs>
    <g id="Styleguide" stroke="none" stroke-width="1" fill="none" fill-rule="evenodd">
        <g transform="translate(-540.000000, -1791.000000)" id="Category-/-Mobel">
            <g transform="translate(540.000000, 1791.000000)">
                <circle id="Oval-Copy-5" stroke="#1975AE" stroke-width="2" cx="30" cy="30" r="29"></circle>
                <path d="M33,34 L32.3274706,32.6057647 L34.2580588,32.8510588 L33.7268824,30.9919412 L35.6742353,31.2495882 L35.1748235,29.4142941 L37.1804118,29.7195882 L36.2962941,26.0684118 L36.5574706,25.7622353 C37.0215882,26.0322353 37.5880588,26.1945882 38.1598235,26.1945882 C38.9521765,26.1945882 39.6421765,25.8972353 40.0983529,25.3625294 L46.5845294,17.7619412 C47.5877647,16.584 47.1986471,14.6181176 46.2077647,13.7737059 L40.3718824,8.79370588 C39.3765882,7.94488235 37.6515882,8.21488235 36.6995294,9.32929412 L30.2142353,16.9334118 C29.6671765,17.5757647 29.4651176,18.3601765 29.5718824,19.0863529 L17,35 L31,35 L33,34 Z M32.0698235,18.5119412 L38.5357059,10.9307647 C38.5154118,11.6445882 39.4718824,13.0087059 40.9427647,14.2607647 C42.5124706,15.6010588 44.1104118,16.3431176 44.7404118,16.0687059 C44.7404118,16.1163529 44.7404118,16.1560588 44.7333529,16.1807647 L38.2983529,23.7407647 C38.286,23.7451765 38.2383529,23.7566471 38.1598235,23.7566471 C37.9771765,23.7566471 37.8183529,23.6887059 37.7751176,23.6578235 L31.9745294,18.7095882 C31.9745294,18.6778235 31.9904118,18.6063529 32.0698235,18.5119412 L32.0698235,18.5119412 Z" id="Fill-1" fill="#1975AE" fill-rule="evenodd"></path>
                <polygon id="Fill-3" fill="#1975AE" fill-rule="evenodd" points="25 41 13 41 11.9096471 42.1450588 18.087 47.4135882 20.3978824 49.3874118 19.8234706 47.2556471 21.7928824 47.4488824 21.2502353 45.5818235 23.1764118 45.828 22.6293529 43.9644706 24.5572941 44.2062353 24.0128824 42.3427059 25.9443529 42.5844706"></polygon>
                <polygon id="Fill-4" fill="#1975AE" fill-rule="evenodd" points="31.3436471 36 7.24305882 36 7.24305882 40 52.7142353 40 52.7142353 36"></polygon>
            </g>
        </g>
    </g>
</svg>