<?xml version="1.0" encoding="UTF-8"?>
<svg width="60px" height="60px" viewBox="0 0 60 60" version="1.1" xmlns="http://www.w3.org/2000/svg" xmlns:xlink="http://www.w3.org/1999/xlink">
    <!-- Generator: Sketch 46.2 (44496) - http://www.bohemiancoding.com/sketch -->
    <title>icon-elektroallgemein</title>
    <desc>Created with Sketch.</desc>
    <defs></defs>
    <g id="Styleguide" stroke="none" stroke-width="1" fill="none" fill-rule="evenodd">
        <g transform="translate(-150.000000, -1631.000000)" id="Category-/-Elektro-allgemein">
            <g transform="translate(150.000000, 1631.000000)">
                <circle id="Oval-Copy-13" stroke="#1975AE" stroke-width="2" cx="30" cy="30" r="29"></circle>
                <path d="M45.2401006,15.488776 C41.1865435,11.4352189 35.7971149,9.20346538 30.0648833,9.20346538 C24.3326517,9.20346538 18.9432231,11.4352189 14.889666,15.488776 C10.8361088,19.5423332 8.60435529,24.9317618 8.60435529,30.6639934 C8.60435529,34.4922547 9.62481267,38.251602 11.5570554,41.5338524 C13.4309862,44.7180328 16.1097972,47.3818242 19.3045798,49.2363177 C19.5987896,49.4068357 19.9203883,49.4881189 20.2375694,49.4881189 C20.8789998,49.4881189 21.5036434,49.155918 21.849097,48.5613139 C22.3650685,47.6724999 22.0620236,46.5336518 21.1732096,46.0176803 C15.7157505,42.8494031 12.3257116,36.9660908 12.3257116,30.6639934 C12.3257116,20.8826222 20.2835121,12.9248216 30.0648833,12.9248216 C39.8462544,12.9248216 47.804055,20.8826222 47.804055,30.6639934 C47.804055,34.7988337 46.6837606,38.2471845 44.5659803,40.6388538 C42.8413631,42.5843492 40.5274429,43.700226 38.2152896,43.700226 C35.8987189,43.700226 33.2738021,42.4809782 32.309006,39.2535056 C36.0427315,38.4821989 38.8576035,35.1690256 38.8576035,31.2108878 L38.8576035,25.7870022 C38.8576035,25.5307835 38.649978,25.3222745 38.3928757,25.3222745 L35.9040199,25.3222745 L35.9040199,20.2447259 C35.9040199,19.2172004 35.0708673,18.3840478 34.0424583,18.3840478 C33.0149328,18.3840478 32.1817801,19.2172004 32.1817801,20.2447259 L32.1817801,25.3222745 L27.9479864,25.3222745 L27.9479864,20.2447259 C27.9479864,19.2172004 27.1148337,18.3840478 26.0873083,18.3840478 C25.0597828,18.3840478 24.2266301,19.2172004 24.2266301,20.2447259 L24.2266301,25.3222745 L21.7368908,25.3222745 C21.4797886,25.3222745 21.2712795,25.5307835 21.2712795,25.7870022 L21.2712795,31.2108878 C21.2712795,35.4066905 24.4351392,38.8771291 28.501949,39.3639447 C28.9392879,41.4163452 29.8510732,43.1816039 31.2019644,44.5590005 C33.0122823,46.4055424 35.5029051,47.4224658 38.2152896,47.4224658 C41.5911924,47.4224658 44.9211524,45.8489293 47.3516964,43.1065053 C49.2556667,40.957802 51.5254113,37.0544421 51.5254113,30.6639934 C51.5254113,24.9317618 49.2936577,19.5423332 45.2401006,15.488776" id="Fill-3" fill="#1975AE" fill-rule="evenodd"></path>
            </g>
        </g>
    </g>
</svg>