<?xml version="1.0" encoding="UTF-8"?>
<svg width="60px" height="60px" viewBox="0 0 60 60" version="1.1" xmlns="http://www.w3.org/2000/svg" xmlns:xlink="http://www.w3.org/1999/xlink">
    <!-- Generator: Sketch 46.2 (44496) - http://www.bohemiancoding.com/sketch -->
    <title>icon-metall</title>
    <desc>Created with Sketch.</desc>
    <defs></defs>
    <g id="Styleguide" stroke="none" stroke-width="1" fill="none" fill-rule="evenodd">
        <g transform="translate(-930.000000, -1871.000000)" id="Category-/-Metal">
            <g transform="translate(930.000000, 1871.000000)">
                <circle id="Oval-Copy-11" stroke="#1975AE" stroke-width="2" cx="30" cy="30" r="29"></circle>
                <path d="M50.2782353,21.8744118 C50.2438235,21.6644118 50.0611765,21.51 49.8476471,21.51 L37.1929412,21.51 C36.9538235,21.51 36.7588235,21.7032353 36.7570588,21.9423529 L36.7429412,24.5011765 C36.7420588,24.6485294 36.8152941,24.7861765 36.9379412,24.8673529 L47.2279412,31.6658824 C47.3002941,31.7135294 47.3832353,31.7382353 47.4688235,31.7382353 C47.5076471,31.7382353 47.5482353,31.7320588 47.5870588,31.7214706 C47.7088235,31.6870588 47.8094118,31.5997059 47.8623529,31.4858824 C49.0244118,28.9808824 50.3408824,26.1414706 50.3938235,23.1802941 C50.3991176,22.8194118 50.3611765,22.38 50.2782353,21.8744118" id="Fill-3" fill="#1975AE" fill-rule="evenodd"></path>
                <path d="M35.8367647,19.32 C35.8367647,19.0958824 35.6664706,18.9088235 35.4423529,18.8876471 C33.6211765,18.7208824 31.5238235,18.4632353 29.49,18.2135294 C28.0526471,18.0361765 26.5667647,17.8535294 25.1770588,17.7035294 C24.9679412,17.6823529 24.7747059,17.8111765 24.7138235,18.0123529 C24.4702941,18.8258824 24.2991176,19.6835294 24.1482353,20.4388235 L24.1411765,20.4732353 C24.0961765,20.6982353 24.0035294,21.2832353 23.9276471,21.7552941 C23.865,22.1514706 23.8094118,22.4955882 23.7794118,22.6570588 C23.7741176,22.6888235 23.7705882,22.7197059 23.7705882,22.7470588 C23.7705882,22.7655882 23.7723529,22.7814706 23.7741176,22.8 C23.7891176,22.9270588 23.8552941,23.0461765 23.9902941,23.2676471 C24.0838235,23.4194118 24.1888235,23.5897059 24.2602941,23.7882353 C24.8179412,25.3420588 23.6029412,26.6717647 22.5308824,27.8452941 L22.3694118,28.0226471 C21.9335294,28.5026471 21.42,29.1820588 21.4455882,29.7017647 C21.4552941,29.8941176 21.5320588,30.06 21.6679412,30.1826471 C21.8514706,30.3467647 22.0641176,30.4491176 22.2705882,30.5470588 C22.5035294,30.6573529 22.7232353,30.7623529 22.8908824,30.9520588 C23.3876471,31.5132353 23.1776471,32.4 22.9138235,33.0458824 C22.905,33.0679412 22.8988235,33.09 22.8926471,33.1120588 C22.7858824,33.5770588 23.0620588,33.8805882 23.2102941,34.0447059 C23.2447059,34.0826471 23.2941176,34.1364706 23.3117647,34.1664706 C23.3091176,34.2344118 23.2905882,34.3147059 23.2694118,34.4073529 C23.2085294,34.6738235 23.1255882,35.0391176 23.3523529,35.4670588 C23.4070588,35.5694118 23.4776471,35.6408824 23.5288235,35.6920588 C23.5411765,35.7052941 23.5544118,35.7167647 23.5658824,35.7308824 C24.3291176,36.6211765 24.2752941,37.2635294 24.1994118,38.1555882 L24.1932353,38.2376471 C24.1023529,39.3097059 24.7473529,40.0623529 26.1088235,40.4779412 C26.4564706,40.5829412 26.9064706,40.6614706 27.3829412,40.7452941 C28.4638235,40.9341176 30.0105882,41.2932353 30.4685294,41.8111765 C30.9573529,42.3661765 31.7576471,43.3923529 31.7576471,43.3923529 C31.8423529,43.4964706 31.9676471,43.5538235 32.0973529,43.5538235 C32.1361765,43.5538235 32.1758824,43.5485294 32.2155882,43.5379412 C33.6935294,43.1214706 34.8988235,42.7623529 35.5464706,42.5691176 C35.7317647,42.5144118 35.8579412,42.3441176 35.8579412,42.1508824 L35.8367647,19.32" id="Fill-4" fill="#1975AE" fill-rule="evenodd"></path>
                <path d="M46.9905882,42.4323529 C46.0261765,40.7144118 45.5885294,39.8691176 45.5408824,39.4076471 C45.3432353,37.4629412 46.0367647,35.6302941 46.7011765,34.0632353 C46.7823529,33.8735294 46.7179412,33.6529412 46.5476471,33.5355882 L37.395,27.2347059 C37.2617647,27.1438235 37.0897059,27.1323529 36.9467647,27.2073529 C36.8038235,27.2823529 36.7138235,27.4314706 36.7138235,27.5920588 L36.6917647,43.2017647 L36.6723529,43.2088235 C36.525,43.2538235 35.7264706,43.4955882 34.5494118,43.8388235 L30.8152941,44.8755882 C25.8864706,46.1452941 23.3408824,46.7047059 19.8723529,47.2676471 C19.3588235,44.4961765 18.2267647,37.6658824 18.0555882,33.2752941 C17.7855882,26.3832353 18.4438235,19.5061765 18.8735294,16.4805882 C23.0991176,16.6411765 25.1523529,16.8158824 26.7317647,16.9782353 C27.7588235,17.0973529 28.8026471,17.2261765 29.8155882,17.3497059 C32.1661765,17.6382353 34.5961765,17.9373529 36.5797059,18.0944118 L37.0102941,18.1270588 L36.9794118,18.5594118 C36.9661765,18.7464706 36.9520588,18.9370588 36.9397059,19.1338235 C36.9308824,19.2529412 36.9723529,19.3711765 37.0552941,19.4594118 C37.1382353,19.5458824 37.2529412,19.5961765 37.3720588,19.5961765 L49.1223529,19.5961765 C49.3632353,19.5961765 49.5326471,19.4002941 49.5573529,19.1620588 C49.5917647,18.8373529 49.0252941,17.7008824 48.7844118,17.2579412 C48.4526471,16.6464706 47.7467647,16.0155882 47.1247059,15.4597059 C46.8026471,15.1702941 46.4973529,14.8985294 46.2317647,14.6223529 C43.5097059,11.8102941 41.2341176,10.6085294 38.625,10.6085294 C38.3902941,10.6085294 38.1476471,10.6191176 37.9085294,10.6402941 C34.3455882,10.9402941 29.0541176,12.3688235 26.3091176,13.9888235 C22.2529412,13.6491176 18.9432353,13.4735294 16.7497059,13.4911765 C16.5608824,13.4929412 16.3976471,13.6270588 16.3482353,13.8097059 C16.3482353,13.8097059 14.5085294,21.9352941 15.0776471,33.3926471 C15.3547059,38.9691176 17.0223529,48.4888235 17.2491176,49.2767647 L17.4785294,50.2367647 C17.5252941,50.4344118 17.7026471,50.5694118 17.9011765,50.5694118 C17.9223529,50.5694118 17.9444118,50.5685294 17.9664706,50.5658824 C18.0397059,50.5535294 25.3270588,49.44 31.5935294,47.7529412 L34.7805882,46.8670588 L35.7317647,48.045 C35.8552941,48.1976471 36.0652941,48.2497059 36.2452941,48.1711765 L47.0091176,43.4417647 C47.1211765,43.3932353 47.2076471,43.2979412 47.2473529,43.1823529 C47.2861765,43.0667647 47.2747059,42.9388235 47.2147059,42.8320588 C47.1388235,42.6979412 47.0629412,42.5602941 46.9905882,42.4323529" id="Fill-6" fill="#1975AE" fill-rule="evenodd"></path>
            </g>
        </g>
    </g>
</svg>