<?xml version="1.0" encoding="UTF-8"?>
<svg width="60px" height="60px" viewBox="0 0 60 60" version="1.1" xmlns="http://www.w3.org/2000/svg" xmlns:xlink="http://www.w3.org/1999/xlink">
    <!-- Generator: Sketch 46.2 (44496) - http://www.bohemiancoding.com/sketch -->
    <title>icon-unterhaltungselektronik</title>
    <desc>Created with Sketch.</desc>
    <defs></defs>
    <g id="Styleguide" stroke="none" stroke-width="1" fill="none" fill-rule="evenodd">
        <g transform="translate(-540.000000, -1631.000000)" id="Category-/-Unterhaltungselektronik">
            <g transform="translate(540.000000, 1631.000000)">
                <circle id="Oval-Copy-2" stroke="#1975AE" stroke-width="2" cx="30" cy="30" r="29"></circle>
                <path d="M16.6605882,32.5621765 L32.4608824,32.5621765" id="Fill-3" fill="#1975AE" fill-rule="evenodd"></path>
                <path d="M16.6605,35.6000294 L32.4607941,35.6000294 L16.6605,35.6000294 Z" id="Fill-7" fill="#1975AE" fill-rule="evenodd"></path>
                <path d="M16.6605882,36 L32.4608824,36" id="Stroke-8" fill="#1975AE" fill-rule="evenodd"></path>
                <path d="M16.6605,38.6375294 L32.4607941,38.6375294 L16.6605,38.6375294 Z" id="Fill-9" fill="#1975AE" fill-rule="evenodd"></path>
                <path d="M16.6605,41.6750294 L32.4607941,41.6750294 L16.6605,41.6750294 Z" id="Fill-11" fill="#1975AE" fill-rule="evenodd"></path>
                <path d="M39.0607059,36.1473529 C37.7804118,36.1473529 36.7418824,35.1088235 36.7418824,33.8285294 C36.7418824,32.5473529 37.7804118,31.5088235 39.0607059,31.5088235 C40.3418824,31.5088235 41.3804118,32.5473529 41.3804118,33.8285294 C41.3804118,35.1088235 40.3418824,36.1473529 39.0607059,36.1473529 L39.0607059,36.1473529 Z M39.0607059,42.6961765 C37.7804118,42.6961765 36.7418824,41.6576471 36.7418824,40.3764706 C36.7418824,39.0952941 37.7804118,38.0576471 39.0607059,38.0576471 C40.3418824,38.0576471 41.3804118,39.0952941 41.3804118,40.3764706 C41.3804118,41.6576471 40.3418824,42.6961765 39.0607059,42.6961765 L39.0607059,42.6961765 Z M35.1042353,27.2108824 L38.3786471,27.2108824 L41.6874706,27.2108824 C43.9286471,27.2108824 45.7462941,29.0285294 45.7462941,31.2697059 L45.7462941,42.9344118 C45.7462941,45.1764706 43.9286471,46.9932353 41.6874706,46.9932353 L17.0618824,46.9932353 C14.8207059,46.9932353 13.0030588,45.1764706 13.0030588,42.9344118 L13.0030588,31.2697059 C13.0030588,29.0285294 14.8207059,27.2108824 17.0618824,27.2108824 L35.1042353,27.2108824 Z M17,33 L33,33 L33,32 L17,32 L17,33 Z M17,38 L33,38 L33,37 L17,37 L17,38 Z M17,43 L33,43 L33,42 L17,42 L17,43 Z" id="Combined-Shape" fill="#1975AE" fill-rule="evenodd"></path>
                <path d="M24.5475,14.1527647 L40.3742647,29.9804118" id="Fill-13" fill="#1975AE" fill-rule="evenodd"></path>
                <path d="M24.5475,14.1527647 L40.3742647,29.9804118" id="Stroke-14" stroke="#1975AE" stroke-width="2" fill="#1975AE" fill-rule="evenodd"></path>
                <path d="M26.7357353,14.0578235 C26.7357353,15.3116471 25.7192647,16.3281176 24.4654412,16.3281176 C23.2116176,16.3281176 22.1960294,15.3116471 22.1960294,14.0578235 C22.1960294,12.804 23.2116176,11.7875294 24.4654412,11.7875294 C25.7192647,11.7875294 26.7357353,12.804 26.7357353,14.0578235" id="Fill-16" fill="#1975AE" fill-rule="evenodd"></path>
            </g>
        </g>
    </g>
</svg>