<?xml version="1.0" encoding="UTF-8"?>
<svg width="60px" height="60px" viewBox="0 0 60 60" version="1.1" xmlns="http://www.w3.org/2000/svg" xmlns:xlink="http://www.w3.org/1999/xlink">
    <!-- Generator: Sketch 46.2 (44496) - http://www.bohemiancoding.com/sketch -->
    <title>icon-mechanik</title>
    <desc>Created with Sketch.</desc>
    <defs></defs>
    <g id="Styleguide" stroke="none" stroke-width="1" fill="none" fill-rule="evenodd">
        <g transform="translate(-540.000000, -1711.000000)" id="Category-/-Metallbearbeitung">
            <g transform="translate(540.000000, 1711.000000)">
                <circle id="Oval-Copy-10" stroke="#1975AE" stroke-width="2" cx="30" cy="30" r="29"></circle>
                <path d="M13.1894118,45.2744118 L11.6505882,46.8132353 L14.8967647,50.0594118 L16.4355882,48.5205882 C17.8588235,49.5 19.4938235,50.1917647 21.2585294,50.5182353 L21.2585294,52.6941176 L25.8494118,52.6941176 L25.8494118,50.5182353 C27.6132353,50.1926471 29.2491176,49.5 30.6723529,48.5205882 L32.2102941,50.0594118 L35.4573529,46.8132353 L33.9185294,45.2744118 C34.8979412,43.8511765 35.5897059,42.2161765 35.9152941,40.4514706 L38.0929412,40.4514706 L38.0929412,35.8605882 L35.9152941,35.8605882 C35.5897059,34.0958824 34.8979412,32.4617647 33.9185294,31.0376471 L35.4573529,29.4988235 L32.2102941,26.2526471 L30.6723529,27.7914706 C29.2491176,26.8120588 27.6132353,26.1202941 25.8494118,25.7947059 L25.8494118,23.6170588 L21.2585294,23.6170588 L21.2585294,25.7947059 C19.4947059,26.1202941 17.8588235,26.8120588 16.4355882,27.7914706 L14.8967647,26.2526471 L11.6505882,29.4988235 L13.1894118,31.0376471 C12.21,32.4617647 11.5173529,34.0958824 11.1926471,35.8605882 L9.015,35.8605882 L9.015,40.4514706 L11.1917647,40.4514706 C11.5182353,42.2161765 12.21,43.8511765 13.1894118,45.2744118 M23.5535294,28.8723529 C28.6817647,28.8723529 32.8376471,33.0291176 32.8376471,38.1564706 C32.8376471,43.2838235 28.6817647,47.4405882 23.5535294,47.4405882 C18.4261765,47.4405882 14.2702941,43.2838235 14.2702941,38.1564706 C14.2694118,33.0291176 18.4261765,28.8723529 23.5535294,28.8723529" id="Fill-1" fill="#1975AE" fill-rule="evenodd"></path>
                <path d="M49.6253824,18.7025294 L50.9939118,18.1192941 L49.5495,14.7310588 L48.1800882,15.3151765 C47.5915588,14.4866471 46.8689118,13.779 46.0289118,13.2072353 L46.5839118,11.8272353 L43.1674412,10.4534118 L42.6124412,11.8342941 C41.6162647,11.6666471 40.5927353,11.6772353 39.6009706,11.8651765 L39.0168529,10.4966471 L35.6295,11.9410588 L36.2136176,13.3104706 C35.3842059,13.899 34.6765588,14.6216471 34.1056765,15.4616471 L32.7256765,14.9066471 L31.3509706,18.3231176 L32.7318529,18.879 C32.5624412,19.8804706 32.5739118,20.8916471 32.7636176,21.8895882 L31.3942059,22.4737059 L32.8395,25.8610588 L34.2080294,25.2778235 C34.7974412,26.1063529 35.5192059,26.8131176 36.3592059,27.3848824 L35.8042059,28.7648824 L39.2215588,30.1395882 L39.7765588,28.7587059 C40.7718529,28.9254706 41.7953824,28.9148824 42.7880294,28.7269412 L43.3721471,30.0954706 L46.7595,28.6519412 L46.1753824,27.2825294 C47.0047941,26.6931176 47.7115588,25.9713529 48.2824412,25.1313529 L49.6633235,25.6863529 L51.0371471,22.269 L49.6571471,21.714 C49.8256765,20.7116471 49.8150882,19.7013529 49.6253824,18.7025294 M43.4506765,25.5866471 C42.7306765,25.8937059 41.9727353,26.049 41.1971471,26.049 C38.8880294,26.049 36.8100882,24.6760588 35.9047941,22.5522353 C34.6606765,19.6351765 36.0212647,16.2504706 38.9383235,15.0063529 C39.6583235,14.6992941 40.4153824,14.544 41.1918529,14.544 C43.5009706,14.544 45.5780294,15.9169412 46.4842059,18.0407647 C47.7274412,20.9569412 46.3668529,24.3425294 43.4506765,25.5866471" id="Fill-4" fill="#1975AE" fill-rule="evenodd"></path>
            </g>
        </g>
    </g>
</svg>