<?xml version="1.0" encoding="UTF-8"?>
<svg width="60px" height="60px" viewBox="0 0 60 60" version="1.1" xmlns="http://www.w3.org/2000/svg" xmlns:xlink="http://www.w3.org/1999/xlink">
    <!-- Generator: Sketch 46.2 (44496) - http://www.bohemiancoding.com/sketch -->
    <title>icon-computer</title>
    <desc>Created with Sketch.</desc>
    <defs></defs>
    <g id="Styleguide" stroke="none" stroke-width="1" fill="none" fill-rule="evenodd">
        <g transform="translate(-150.000000, -1711.000000)" id="Category-/-Computer">
            <g transform="translate(150.000000, 1711.000000)">
                <circle id="Oval-Copy-3" stroke="#1975AE" stroke-width="2" cx="30" cy="30" r="29"></circle>
                <path d="M39.8032941,28.3111765 L40.6291765,27.4861765 C40.7068235,27.4058824 40.7385882,27.2894118 40.7059412,27.1817647 C40.6724118,27.0758824 40.5832941,26.9955882 40.4747647,26.9717647 L36.9127059,26.2535294 C36.8121176,26.2332353 36.7088824,26.2641176 36.6365294,26.3364706 C36.5659412,26.4097059 36.5324118,26.5129412 36.5535882,26.6126471 L37.2727059,30.1729412 C37.2965294,30.2823529 37.3759412,30.3723529 37.4818235,30.4041176 C37.5894706,30.4376471 37.7077059,30.4067647 37.7871176,30.3264706 L38.6103529,29.5023529 L40.5409412,31.4320588 C40.6582941,31.5511765 40.8524118,31.5511765 40.9697647,31.4329412 L41.733,30.6714706 C41.7903529,30.6141176 41.823,30.5364706 41.823,30.4561765 C41.823,30.375 41.7903529,30.2964706 41.733,30.24 L39.8032941,28.3111765 Z" id="Fill-1" fill="#1975AE" fill-rule="evenodd"></path>
                <path d="M48.9129706,43.5187059 L46.9867941,37.9484118 C46.7962059,37.4004706 46.2809118,37.0334118 45.7012059,37.0334118 L45.4073824,37.0334118 C46.4723824,36.6954706 47.2506176,35.7098824 47.2506176,34.5345882 L47.2506176,16.6184118 C47.2506176,15.1669412 46.0691471,13.9863529 44.6185588,13.9863529 L16.3735588,13.9863529 C14.9220882,13.9863529 13.7406176,15.1669412 13.7406176,16.6184118 L13.7406176,34.5345882 C13.7406176,35.7098824 14.5197353,36.6954706 15.5847353,37.0325294 L15.2926765,37.0325294 C14.7120882,37.0325294 14.1967941,37.4004706 14.0062059,37.9484118 L12.0800294,43.5187059 C11.7235588,44.5466471 11.8876765,45.6822353 12.5185588,46.569 C13.1494412,47.4548824 14.1694412,47.9807647 15.2573824,47.9807647 L45.7338529,47.9807647 C46.8217941,47.9807647 47.8417941,47.4548824 48.4735588,46.569 C49.1035588,45.6831176 49.2685588,44.5466471 48.9129706,43.5187059 L48.9129706,43.5187059 Z M30.4965,14.5942941 C30.8626765,14.5942941 31.1609118,14.8916471 31.1609118,15.2578235 C31.1609118,15.6257647 30.8626765,15.9231176 30.4965,15.9231176 C30.1303235,15.9231176 29.8320882,15.6257647 29.8320882,15.2578235 C29.8320882,14.8916471 30.1303235,14.5942941 30.4965,14.5942941 L30.4965,14.5942941 Z M16.3735588,16.5301765 L44.7067941,16.6184118 L44.7067941,34.6219412 L16.2853235,34.5345882 L16.3735588,16.5301765 Z M35.6185588,45.4034118 C35.5479706,45.5075294 35.4315,45.5684118 35.3079706,45.5684118 L25.6859118,45.5684118 C25.5615,45.5684118 25.4450294,45.5075294 25.3753235,45.4034118 C25.3073824,45.3010588 25.2932647,45.1704706 25.3391471,45.0557647 L26.2673824,42.759 C26.4562059,42.294 26.9079706,41.9887059 27.4100294,41.9887059 L33.5838529,41.9887059 C34.0850294,41.9887059 34.5376765,42.294 34.7256176,42.759 L35.6547353,45.0557647 C35.6997353,45.1704706 35.6865,45.3001765 35.6185588,45.4034118 L35.6185588,45.4034118 Z" id="Fill-3" fill="#1975AE" fill-rule="evenodd"></path>
            </g>
        </g>
    </g>
</svg>