<?xml version="1.0" encoding="UTF-8"?>
<svg width="60px" height="60px" viewBox="0 0 60 60" version="1.1" xmlns="http://www.w3.org/2000/svg" xmlns:xlink="http://www.w3.org/1999/xlink">
    <!-- Generator: Sketch 46.2 (44496) - http://www.bohemiancoding.com/sketch -->
    <title>icon-schmuck</title>
    <desc>Created with Sketch.</desc>
    <defs></defs>
    <g id="Styleguide" stroke="none" stroke-width="1" fill="none" fill-rule="evenodd">
        <g transform="translate(-540.000000, -1871.000000)" id="Category-/-Schmuck">
            <g transform="translate(540.000000, 1871.000000)">
                <circle id="Oval-Copy-9" stroke="#1975AE" stroke-width="2" cx="30" cy="30" r="29"></circle>
                <path d="M47.5769322,25.2046431 C47.5769322,25.2032832 47.5784147,25.2019233 47.5784147,25.2005634 L47.5784147,25.1992035 C47.5784147,25.0659339 47.5265295,24.9503429 47.4553727,24.8456311 C47.4464781,24.8333921 47.4509254,24.8157134 47.4405483,24.8048343 L40.0283786,15.2842178 C40.0135543,15.2651793 39.9898353,15.2570199 39.9735285,15.2407012 C39.9275731,15.1903851 39.8742055,15.1482284 39.8119432,15.1115113 C39.7778473,15.0924728 39.7437513,15.0761541 39.7066904,15.0611952 C39.6785242,15.0503161 39.6592525,15.0326375 39.6296039,15.0244781 C39.5866133,15.0135989 39.5421403,15.0190385 39.4991497,15.0149588 C39.4724659,15.0135989 39.4517118,15 39.425028,15 L20.1533867,15 C19.9147148,15 19.6893849,15.1060717 19.5500361,15.2842178 L12.1378664,24.8048343 C12.1274893,24.8170733 12.1319366,24.8333921 12.123042,24.8456311 C12.0518852,24.9503429 12,25.0659339 12,25.1992035 L12,25.2005634 C12,25.2019233 12.0014824,25.2032832 12.0014824,25.206003 C12.0029649,25.3351929 12.0533676,25.4507838 12.123042,25.5527759 C12.1334191,25.5663748 12.1289718,25.5840534 12.1393488,25.5976524 L29.1873392,47.3559532 C29.2184703,47.3940302 29.2644257,47.4144286 29.3000041,47.4457061 C29.3311353,47.4715441 29.3548542,47.4946623 29.3904326,47.5150607 C29.5090273,47.5871351 29.6409639,47.6374512 29.7892073,47.6374512 C29.9374507,47.6374512 30.0693874,47.5857752 30.1879821,47.5137008 C30.2235605,47.4933024 30.2472794,47.4688243 30.2784105,47.4443463 C30.313989,47.4130687 30.3614268,47.3926703 30.3910755,47.3545933 L47.4390659,25.5962925 C47.4494429,25.5826935 47.4449956,25.5650149 47.4553727,25.5527759 C47.5250471,25.4507838 47.5754498,25.3351929 47.5769322,25.2046431 Z M22.5564121,25.8791504 L27.9376473,43.4285799 L14.1865901,25.8791504 L22.5564121,25.8791504 Z M35.1022506,24.5192566 L24.4761641,24.5192566 L29.7892073,16.9378487 L35.1022506,24.5192566 Z M31.1471168,16.3598938 L38.4436567,16.3598938 L36.1977693,23.5673309 L31.1471168,16.3598938 Z M35.4817537,25.8791504 L29.7892073,44.4471403 L24.096661,25.8791504 L35.4817537,25.8791504 Z M37.0220026,25.8791504 L45.3918246,25.8791504 L31.6407673,43.4285799 L37.0220026,25.8791504 Z M37.4430138,24.5192566 L39.7141026,17.2234264 L45.3962719,24.5192566 L37.4430138,24.5192566 Z M20.5358547,16.3598938 L28.4312978,16.3598938 L22.7135501,24.5192566 L14.1821428,24.5192566 L20.5358547,16.3598938 Z" id="Shape" stroke="#17609E" stroke-width="0.5" fill="#1975AE" fill-rule="nonzero"></path>
            </g>
        </g>
    </g>
</svg>