<?xml version="1.0" encoding="UTF-8"?>
<svg width="60px" height="60px" viewBox="0 0 60 60" version="1.1" xmlns="http://www.w3.org/2000/svg" xmlns:xlink="http://www.w3.org/1999/xlink">
    <!-- Generator: Sketch 46.2 (44496) - http://www.bohemiancoding.com/sketch -->
    <title>icon-fahrrad</title>
    <desc>Created with Sketch.</desc>
    <defs></defs>
    <g id="Styleguide" stroke="none" stroke-width="1" fill="none" fill-rule="evenodd">
        <g transform="translate(-150.000000, -1791.000000)" id="Category-/-Fahrrad">
            <g transform="translate(150.000000, 1791.000000)">
                <circle id="Oval-Copy-6" stroke="#1975AE" stroke-width="2" cx="30" cy="30" r="29"></circle>
                <path d="M44.2360588,24.9902647 L42.039,14.6005588 C41.9119412,14.0023235 41.3842941,13.5743824 40.7728235,13.5743824 L38.4434118,13.5743824 C37.7287059,13.5743824 37.1498824,14.1532059 37.1498824,14.8679118 C37.1498824,15.5826176 37.7287059,16.1614412 38.4434118,16.1614412 L39.7245882,16.1614412 L40.8169412,21.3276176 L18.1687059,21.3276176 C17.5969412,21.3276176 17.0931176,21.7026176 16.929,22.2505588 L16.0978235,25.0370294 C11.3869412,25.5276176 7.70223529,29.5211471 7.70223529,34.3599706 C7.70223529,39.5287941 11.9075294,43.7349706 17.0763529,43.7349706 C21.9610588,43.7349706 25.9837059,39.9796765 26.4125294,35.2061471 L35.8254706,30.8614412 C35.3887059,31.9432059 35.1478235,33.1237941 35.1478235,34.3599706 C35.1478235,39.5287941 39.3531176,43.7349706 44.5219412,43.7349706 C49.6916471,43.7349706 53.8969412,39.5287941 53.8969412,34.3599706 C53.8960588,29.1911471 49.6916471,24.9858529 44.5219412,24.9858529 C44.4266471,24.9858529 44.3304706,24.9876176 44.2360588,24.9902647 Z M41.3631176,23.9146765 L41.6595882,25.3185 L26.2510588,32.4311471 C25.4728235,28.7279118 22.5037059,25.8223235 18.7678235,25.1393824 L19.1331176,23.9146765 L41.3631176,23.9146765 Z M17.0763529,41.1470294 C13.3342941,41.1470294 10.2892941,38.1029118 10.2892941,34.3599706 C10.2892941,30.6179118 13.3342941,27.5729118 17.0763529,27.5729118 C20.8192941,27.5729118 23.8634118,30.6179118 23.8634118,34.3599706 C23.8634118,38.1029118 20.8192941,41.1470294 17.0763529,41.1470294 L17.0763529,41.1470294 Z M44.5219412,41.1470294 C40.7798824,41.1470294 37.7348824,38.1029118 37.7348824,34.3599706 C37.7348824,30.6179118 40.7798824,27.5729118 44.5219412,27.5729118 C48.2648824,27.5729118 51.309,30.6179118 51.309,34.3599706 C51.309,38.1029118 48.2648824,41.1470294 44.5219412,41.1470294 L44.5219412,41.1470294 Z" id="Fill-1" fill="#1975AE" fill-rule="evenodd"></path>
                <path d="M21.0260294,17.3053235 L16.9495588,17.3053235 C16.2348529,17.3053235 15.6560294,17.8841471 15.6560294,18.5988529 C15.6560294,19.3135588 16.2348529,19.8923824 16.9495588,19.8923824 L21.0260294,19.8923824 C21.7407353,19.8923824 22.3195588,19.3135588 22.3195588,18.5988529 C22.3195588,17.8841471 21.7407353,17.3053235 21.0260294,17.3053235" id="Fill-3" fill="#1975AE" fill-rule="evenodd"></path>
            </g>
        </g>
    </g>
</svg>