<?xml version="1.0" encoding="utf-8"?>
<!-- Generator: Adobe Illustrator 21.0.2, SVG Export Plug-In . SVG Version: 6.00 Build 0)  -->
<svg version="1.1" id="Ebene_1" xmlns="http://www.w3.org/2000/svg" xmlns:xlink="http://www.w3.org/1999/xlink" x="0px" y="0px"
	 viewBox="0 0 434.3 44.1" style="enable-background:new 0 0 434.3 44.1;" xml:space="preserve">
<style type="text/css">
	.st0{fill:#FFFFFF;}
	.st1{fill:#000003;}
	.st2{clip-path:url(#SVGID_2_);fill:none;stroke:#FFFFFF;stroke-width:1.4005;}
</style>
<g>
	<path class="st0" d="M5.2,14.4l-0.5-1.6H2.4L2,14.4H1l2.1-6.5h1l2.1,6.5H5.2L5.2,14.4z M3.6,9l-0.9,3.1h1.8L3.6,9L3.6,9z"/>
	<polygon class="st0" points="7.5,14.4 7.5,7.7 8.4,7.3 8.4,14.4 7.5,14.4 	"/>
	<polygon class="st0" points="10.1,14.4 10.1,7.7 11,7.3 11,14.4 10.1,14.4 	"/>
	<path class="st0" d="M13.4,12.2c0,1.1,0.6,1.6,1.3,1.6c0.5,0,1-0.1,1.3-0.4l0.3,0.7c-0.5,0.3-1,0.5-1.8,0.5c-1.3,0-2.2-0.8-2.2-2.6
		c0-1.7,0.8-2.5,2.1-2.5c1.4,0,1.9,1,1.9,2.7H13.4L13.4,12.2z M14.5,10.2c-0.7,0-1.1,0.4-1.1,1.3h2.2C15.5,10.7,15.1,10.2,14.5,10.2
		L14.5,10.2z"/>
	<path class="st0" d="M20.4,14.4V14c-0.3,0.4-0.8,0.5-1.4,0.5c-0.8,0-1.4-0.6-1.4-1.4c0-1,0.7-1.5,1.9-1.5c0.3,0,0.6,0,0.9,0.1v-0.4
		c0-0.7-0.3-1-1-1c-0.4,0-0.8,0.1-1.1,0.3l-0.3-0.7c0.4-0.3,1-0.5,1.6-0.5c1.1,0,1.8,0.5,1.8,1.7v3.3H20.4L20.4,14.4z M20.4,12.3
		c-0.3-0.1-0.5-0.1-0.8-0.1c-0.7,0-1.1,0.3-1.1,0.8c0,0.5,0.3,0.8,0.9,0.8c0.4,0,0.8-0.2,1-0.4V12.3L20.4,12.3z"/>
	<path class="st0" d="M26,14.4v-3.2c0-0.7-0.4-1-1-1c-0.4,0-0.8,0.2-1.1,0.5v3.7h-0.9V9.6h0.9V10c0.3-0.4,0.8-0.6,1.4-0.6
		c1.2,0,1.6,0.7,1.6,1.6v3.4H26L26,14.4z"/>
	<polygon class="st0" points="28.2,14.4 28.2,13.7 30.9,10.3 28.2,10.3 28.2,9.6 32,9.6 32,10.3 29.3,13.7 32.1,13.7 32.1,14.4 
		28.2,14.4 	"/>
	<path class="st0" d="M35.9,14.4V14c-0.3,0.4-0.8,0.5-1.4,0.5c-0.8,0-1.4-0.6-1.4-1.4c0-1,0.7-1.5,1.9-1.5c0.3,0,0.6,0,0.9,0.1v-0.4
		c0-0.7-0.3-1-1-1c-0.4,0-0.8,0.1-1.1,0.3l-0.3-0.7c0.4-0.3,1-0.5,1.6-0.5c1.1,0,1.8,0.5,1.8,1.7v3.3H35.9L35.9,14.4z M35.9,12.3
		c-0.3-0.1-0.5-0.1-0.8-0.1c-0.7,0-1.1,0.3-1.1,0.8c0,0.5,0.3,0.8,0.9,0.8c0.4,0,0.8-0.2,1-0.4V12.3L35.9,12.3z"/>
	<path class="st0" d="M43.5,14.4V14c-0.3,0.3-0.8,0.6-1.3,0.6c-1.3,0-1.9-0.8-1.9-2.4c0-1.7,0.7-2.6,2-2.6c0.5,0,0.9,0.2,1.2,0.4
		V7.7l0.9-0.4v7.2H43.5L43.5,14.4z M43.5,10.7c-0.3-0.2-0.7-0.4-1-0.4c-0.8,0-1.3,0.4-1.3,1.8c0,1.2,0.4,1.7,1.2,1.7
		c0.4,0,0.8-0.2,1.1-0.5V10.7L43.5,10.7z"/>
	<path class="st0" d="M46.8,12.2c0,1.1,0.6,1.6,1.3,1.6c0.5,0,1-0.1,1.3-0.4l0.3,0.7c-0.5,0.3-1,0.5-1.8,0.5c-1.3,0-2.2-0.8-2.2-2.6
		c0-1.7,0.8-2.5,2.1-2.5c1.4,0,1.9,1,1.9,2.7H46.8L46.8,12.2z M47.9,10.2c-0.7,0-1.1,0.4-1.1,1.3H49C48.9,10.7,48.6,10.2,47.9,10.2
		L47.9,10.2z"/>
	<polygon class="st0" points="51.3,14.4 51.3,7.7 52.3,7.3 52.3,14.4 51.3,14.4 	"/>
	<polygon class="st0" points="54,14.4 54,7.7 54.9,7.3 54.9,14.4 54,14.4 	"/>
	<path class="st0" d="M57.3,12.2c0,1.1,0.6,1.6,1.3,1.6c0.5,0,1-0.1,1.3-0.4l0.3,0.7c-0.5,0.3-1,0.5-1.8,0.5c-1.3,0-2.2-0.8-2.2-2.6
		c0-1.7,0.8-2.5,2.1-2.5c1.4,0,1.9,1,1.9,2.7H57.3L57.3,12.2z M58.4,10.2c-0.7,0-1.1,0.4-1.1,1.3h2.2C59.4,10.7,59,10.2,58.4,10.2
		L58.4,10.2z"/>
	<path class="st0" d="M65.8,14.5c-1.4,0-2.1-0.8-2.1-2.5c0-1.7,0.8-2.6,2.1-2.6c1.4,0,2.1,0.8,2.1,2.4C68,13.6,67.2,14.5,65.8,14.5
		L65.8,14.5z M65.9,10.2c-0.8,0-1.3,0.4-1.3,1.8c0,1.3,0.4,1.7,1.2,1.7c0.8,0,1.3-0.5,1.3-1.9C67.1,10.7,66.6,10.2,65.9,10.2
		L65.9,10.2z"/>
	<path class="st0" d="M71.9,10.5c-0.2-0.1-0.3-0.1-0.6-0.1c-0.3,0-0.7,0.2-0.9,0.7v3.4h-0.9V9.6h0.9v0.7c0.3-0.5,0.7-0.8,1.1-0.8
		c0.3,0,0.6,0.1,0.7,0.2L71.9,10.5L71.9,10.5z"/>
	<path class="st0" d="M74.6,16.5c-0.3,0-0.6-0.1-0.9-0.2l-0.2-0.8c0.3,0.1,0.7,0.2,1,0.2c0.9,0,1.4-0.6,1.4-1.5v-0.4
		c-0.3,0.3-0.8,0.6-1.3,0.6c-1.2,0-1.9-0.7-1.9-2.4c0-1.7,0.7-2.5,2-2.5c0.5,0,0.9,0.2,1.2,0.4V9.6h0.9V14
		C76.9,15.7,75.9,16.5,74.6,16.5L74.6,16.5z M75.9,10.6c-0.3-0.2-0.7-0.4-1-0.4c-0.8,0-1.3,0.4-1.3,1.7c0,1.2,0.4,1.7,1.2,1.7
		c0.4,0,0.8-0.2,1.1-0.5V10.6L75.9,10.6z"/>
	<path class="st0" d="M81.1,14.4V14c-0.3,0.4-0.8,0.5-1.4,0.5c-0.8,0-1.4-0.6-1.4-1.4c0-1,0.7-1.5,1.9-1.5c0.3,0,0.6,0,0.9,0.1v-0.4
		c0-0.7-0.3-1-1-1c-0.4,0-0.8,0.1-1.1,0.3l-0.3-0.7c0.4-0.3,1-0.5,1.6-0.5c1.1,0,1.8,0.5,1.8,1.7v3.3H81.1L81.1,14.4z M81.1,12.3
		c-0.3-0.1-0.5-0.1-0.8-0.1c-0.7,0-1.1,0.3-1.1,0.8c0,0.5,0.3,0.8,0.9,0.8c0.4,0,0.8-0.2,1-0.4V12.3L81.1,12.3z"/>
	<path class="st0" d="M86.7,14.4v-3.2c0-0.7-0.4-1-1.1-1c-0.4,0-0.8,0.2-1.1,0.5v3.7h-0.9V9.6h0.9V10c0.3-0.4,0.8-0.6,1.4-0.6
		c1.2,0,1.6,0.7,1.6,1.6v3.4H86.7L86.7,14.4z"/>
	<path class="st0" d="M89.7,8.5c-0.3,0-0.6-0.2-0.6-0.6c0-0.4,0.3-0.6,0.6-0.6c0.3,0,0.6,0.2,0.6,0.6C90.3,8.2,90,8.5,89.7,8.5
		L89.7,8.5z M89.2,14.4V9.6h0.9v4.9H89.2L89.2,14.4z"/>
	<polygon class="st0" points="91.5,14.4 91.5,13.7 94.2,10.3 91.5,10.3 91.5,9.6 95.3,9.6 95.3,10.3 92.6,13.7 95.5,13.7 95.5,14.4 
		91.5,14.4 	"/>
	<polygon class="st0" points="96.3,14.4 96.3,13.7 99.1,10.3 96.4,10.3 96.4,9.6 100.2,9.6 100.2,10.3 97.4,13.7 100.3,13.7 
		100.3,14.4 96.3,14.4 	"/>
	<path class="st0" d="M104,14.4V14c-0.3,0.4-0.8,0.5-1.4,0.5c-0.8,0-1.4-0.6-1.4-1.4c0-1,0.7-1.5,1.9-1.5c0.3,0,0.6,0,0.9,0.1v-0.4
		c0-0.7-0.3-1-1-1c-0.4,0-0.8,0.1-1.1,0.3l-0.3-0.7c0.4-0.3,1-0.5,1.6-0.5c1.1,0,1.8,0.5,1.8,1.7v3.3H104L104,14.4z M104,12.3
		c-0.3-0.1-0.5-0.1-0.8-0.1c-0.7,0-1.1,0.3-1.1,0.8c0,0.5,0.3,0.8,0.9,0.8c0.4,0,0.8-0.2,1-0.4V12.3L104,12.3z"/>
	<polygon class="st0" points="106.2,14.4 106.2,13.7 108.9,10.3 106.3,10.3 106.3,9.6 110,9.6 110,10.3 107.3,13.7 110.2,13.7 
		110.2,14.4 106.2,14.4 	"/>
	<path class="st0" d="M111.9,8.5c-0.3,0-0.6-0.2-0.6-0.6c0-0.4,0.3-0.6,0.6-0.6c0.3,0,0.6,0.2,0.6,0.6
		C112.5,8.2,112.2,8.5,111.9,8.5L111.9,8.5z M111.4,14.4V9.6h0.9v4.9H111.4L111.4,14.4z"/>
	<path class="st0" d="M115.9,14.5c-1.4,0-2.1-0.8-2.1-2.5c0-1.7,0.8-2.6,2.1-2.6c1.4,0,2.1,0.8,2.1,2.4
		C118.1,13.6,117.3,14.5,115.9,14.5L115.9,14.5z M116,10.2c-0.8,0-1.3,0.4-1.3,1.8c0,1.3,0.4,1.7,1.2,1.7c0.8,0,1.3-0.5,1.3-1.9
		C117.2,10.7,116.7,10.2,116,10.2L116,10.2z"/>
	<path class="st0" d="M122.6,14.4v-3.2c0-0.7-0.4-1-1.1-1c-0.4,0-0.8,0.2-1.1,0.5v3.7h-0.9V9.6h0.9V10c0.3-0.4,0.8-0.6,1.4-0.6
		c1.2,0,1.6,0.7,1.6,1.6v3.4H122.6L122.6,14.4z"/>
	<path class="st0" d="M125.6,8.5c-0.3,0-0.6-0.2-0.6-0.6c0-0.4,0.3-0.6,0.6-0.6c0.3,0,0.6,0.2,0.6,0.6C126.2,8.2,126,8.5,125.6,8.5
		L125.6,8.5z M125.2,14.4V9.6h0.9v4.9H125.2L125.2,14.4z"/>
	<path class="st0" d="M132.9,14.4V14c-0.3,0.3-0.8,0.6-1.3,0.6c-1.3,0-1.9-0.8-1.9-2.4c0-1.7,0.7-2.6,2-2.6c0.5,0,0.9,0.2,1.2,0.4
		V7.7l0.9-0.4v7.2H132.9L132.9,14.4z M132.9,10.7c-0.3-0.2-0.7-0.4-1-0.4c-0.8,0-1.3,0.4-1.3,1.8c0,1.2,0.4,1.7,1.2,1.7
		c0.4,0,0.8-0.2,1.1-0.5V10.7L132.9,10.7z"/>
	<path class="st0" d="M136.2,12.2c0,1.1,0.6,1.6,1.3,1.6c0.5,0,1-0.1,1.3-0.4l0.3,0.7c-0.5,0.3-1,0.5-1.8,0.5
		c-1.3,0-2.2-0.8-2.2-2.6c0-1.7,0.8-2.5,2.1-2.5c1.4,0,1.9,1,1.9,2.7H136.2L136.2,12.2z M137.3,10.2c-0.7,0-1.1,0.4-1.1,1.3h2.2
		C138.3,10.7,137.9,10.2,137.3,10.2L137.3,10.2z"/>
	<path class="st0" d="M141.2,8.5c-0.3,0-0.6-0.2-0.6-0.6c0-0.4,0.3-0.6,0.6-0.6c0.3,0,0.6,0.2,0.6,0.6
		C141.8,8.2,141.5,8.5,141.2,8.5L141.2,8.5z M140.7,14.4V9.6h0.9v4.9H140.7L140.7,14.4z"/>
	<path class="st0" d="M147.3,14.5c-1.3,0-2-0.9-2-2.5c0-1.7,0.9-2.6,2.1-2.6c0.6,0,1.1,0.1,1.4,0.4l-0.2,0.7
		c-0.4-0.2-0.7-0.3-1.1-0.3c-0.7,0-1.2,0.6-1.2,1.8c0,1.2,0.4,1.7,1.2,1.7c0.5,0,0.9-0.1,1.2-0.4l0.3,0.7
		C148.4,14.4,148,14.5,147.3,14.5L147.3,14.5z"/>
	<path class="st0" d="M151.9,14.5c-1.4,0-2.1-0.8-2.1-2.5c0-1.7,0.8-2.6,2.1-2.6c1.4,0,2.1,0.8,2.1,2.4
		C154.1,13.6,153.3,14.5,151.9,14.5L151.9,14.5z M152,10.2c-0.8,0-1.3,0.4-1.3,1.8c0,1.3,0.4,1.7,1.2,1.7c0.8,0,1.3-0.5,1.3-1.9
		C153.1,10.7,152.7,10.2,152,10.2L152,10.2z"/>
	<path class="st0" d="M158.6,14.4v-3.2c0-0.7-0.4-1-1-1c-0.4,0-0.8,0.2-1.1,0.5v3.7h-0.9V9.6h0.9V10c0.3-0.4,0.8-0.6,1.4-0.6
		c1.2,0,1.6,0.7,1.6,1.6v3.4H158.6L158.6,14.4z"/>
	<path class="st0" d="M162.5,14.5c-0.6,0-1.1-0.1-1.6-0.3l0.2-0.8c0.5,0.2,0.9,0.3,1.4,0.3c0.7,0,1-0.3,1-0.7c0-0.3-0.1-0.5-0.8-0.8
		l-0.4-0.2c-0.8-0.3-1.2-0.7-1.2-1.3c0-0.9,0.7-1.4,1.8-1.4c0.6,0,0.9,0.1,1.4,0.3l-0.3,0.7c-0.4-0.2-0.7-0.3-1.2-0.3
		c-0.7,0-0.9,0.2-0.9,0.6c0,0.3,0.2,0.5,0.8,0.7l0.4,0.2c0.8,0.3,1.2,0.7,1.2,1.3C164.3,14,163.7,14.5,162.5,14.5L162.5,14.5z"/>
	<path class="st0" d="M168.9,14.4V14c-0.3,0.4-0.8,0.6-1.4,0.6c-1.2,0-1.6-0.7-1.6-1.6V9.6h0.9v3.2c0,0.6,0.4,1,1.1,1
		c0.4,0,0.8-0.2,1.1-0.5V9.6h0.9v4.9H168.9L168.9,14.4z"/>
	<path class="st0" d="M177.4,14.4v-3.2c0-0.7-0.4-1-1-1c-0.4,0-0.8,0.2-1.1,0.5v3.7h-0.9v-3.2c0-0.6-0.4-1-1-1c-0.4,0-0.8,0.2-1,0.5
		v3.7h-0.9V9.6h0.9V10c0.3-0.4,0.8-0.6,1.3-0.6c0.7,0,1.2,0.3,1.4,0.8c0.4-0.4,0.8-0.8,1.5-0.8c1.1,0,1.6,0.7,1.6,1.6v3.4H177.4
		L177.4,14.4z"/>
	<path class="st0" d="M182.4,14.4V14c-0.3,0.4-0.8,0.5-1.4,0.5c-0.8,0-1.4-0.6-1.4-1.4c0-1,0.7-1.5,1.9-1.5c0.3,0,0.6,0,0.9,0.1
		v-0.4c0-0.7-0.3-1-1-1c-0.4,0-0.8,0.1-1.1,0.3l-0.3-0.7c0.4-0.3,1-0.5,1.6-0.5c1.1,0,1.8,0.5,1.8,1.7v3.3H182.4L182.4,14.4z
		 M182.4,12.3c-0.3-0.1-0.5-0.1-0.8-0.1c-0.7,0-1.1,0.3-1.1,0.8c0,0.5,0.3,0.8,0.9,0.8c0.4,0,0.8-0.2,1-0.4V12.3L182.4,12.3z"/>
	<path class="st0" d="M186.6,14.5c-0.9,0-1.5-0.5-1.5-1.6v-2.6h-0.8V9.6h0.8V8.7l0.9-0.4v1.2h1.6v0.8h-1.6v2.5
		c0,0.7,0.2,0.9,0.7,0.9c0.3,0,0.6-0.1,0.8-0.2l0.3,0.7C187.5,14.4,187.1,14.5,186.6,14.5L186.6,14.5z"/>
	<path class="st0" d="M190.9,14.5c-1.4,0-2.1-0.8-2.1-2.5c0-1.7,0.8-2.6,2.1-2.6c1.4,0,2.1,0.8,2.1,2.4
		C193.1,13.6,192.3,14.5,190.9,14.5L190.9,14.5z M191,10.2c-0.8,0-1.3,0.4-1.3,1.8c0,1.3,0.4,1.7,1.2,1.7c0.8,0,1.3-0.5,1.3-1.9
		C192.1,10.7,191.7,10.2,191,10.2L191,10.2z"/>
	<path class="st0" d="M197,10.5c-0.2-0.1-0.3-0.1-0.6-0.1c-0.3,0-0.7,0.2-0.9,0.7v3.4h-0.9V9.6h0.9v0.7c0.3-0.5,0.7-0.8,1.1-0.8
		c0.3,0,0.6,0.1,0.7,0.2L197,10.5L197,10.5z"/>
	<path class="st0" d="M198.8,8.5c-0.3,0-0.6-0.2-0.6-0.6c0-0.4,0.3-0.6,0.6-0.6c0.3,0,0.6,0.2,0.6,0.6
		C199.4,8.2,199.1,8.5,198.8,8.5L198.8,8.5z M198.3,14.4V9.6h0.9v4.9H198.3L198.3,14.4z"/>
	<path class="st0" d="M5.2,27l-0.5-1.6H2.4L2,27H1l2.1-6.5h1L6.3,27H5.2L5.2,27z M3.6,21.5l-0.9,3.1h1.8L3.6,21.5L3.6,21.5z"/>
	<polygon class="st0" points="7.5,27 7.5,20.3 8.4,19.9 8.4,27 7.5,27 	"/>
	<polygon class="st0" points="10.1,27 10.1,20.3 11,19.9 11,27 10.1,27 	"/>
	<path class="st0" d="M13.2,21.1c-0.3,0-0.6-0.2-0.6-0.6c0-0.4,0.3-0.6,0.6-0.6c0.3,0,0.6,0.2,0.6,0.6
		C13.8,20.8,13.5,21.1,13.2,21.1L13.2,21.1z M12.7,27v-4.9h0.9V27H12.7L12.7,27z"/>
	<path class="st0" d="M17.8,27v-0.4c-0.3,0.4-0.8,0.5-1.4,0.5c-0.8,0-1.4-0.6-1.4-1.4c0-1,0.7-1.5,1.9-1.5c0.3,0,0.6,0,0.9,0.1v-0.4
		c0-0.7-0.3-1-1-1c-0.4,0-0.8,0.1-1.1,0.3l-0.3-0.7c0.4-0.3,1-0.5,1.6-0.5c1.1,0,1.8,0.5,1.8,1.7V27H17.8L17.8,27z M17.8,24.9
		c-0.3-0.1-0.5-0.1-0.8-0.1c-0.7,0-1.1,0.3-1.1,0.8c0,0.5,0.3,0.8,0.9,0.8c0.4,0,0.8-0.2,1-0.4V24.9L17.8,24.9z"/>
	<path class="st0" d="M23.4,27v-3.2c0-0.7-0.4-1-1-1c-0.4,0-0.8,0.2-1.1,0.5V27h-0.9v-4.9h0.9v0.5c0.3-0.4,0.8-0.6,1.4-0.6
		c1.2,0,1.6,0.7,1.6,1.6V27H23.4L23.4,27z"/>
	<path class="st0" d="M27.8,27.1c-1.3,0-2-0.9-2-2.5c0-1.7,0.9-2.6,2.1-2.6c0.6,0,1.1,0.1,1.4,0.4L29,23.1c-0.4-0.2-0.7-0.3-1.1-0.3
		c-0.7,0-1.2,0.6-1.2,1.8c0,1.2,0.4,1.7,1.2,1.7c0.5,0,0.9-0.1,1.2-0.4l0.3,0.7C28.9,27,28.5,27.1,27.8,27.1L27.8,27.1z"/>
	<path class="st0" d="M31.2,24.8c0,1.1,0.6,1.6,1.3,1.6c0.5,0,1-0.1,1.3-0.4l0.3,0.7c-0.5,0.3-1,0.5-1.8,0.5c-1.3,0-2.2-0.8-2.2-2.6
		c0-1.7,0.8-2.5,2.1-2.5c1.4,0,1.9,1,1.9,2.7H31.2L31.2,24.8z M32.4,22.8c-0.7,0-1.1,0.4-1.1,1.3h2.2C33.4,23.3,33,22.8,32.4,22.8
		L32.4,22.8z"/>
	<path class="st0" d="M40.9,27v-0.5c-0.3,0.3-0.8,0.6-1.3,0.6c-1.3,0-1.9-0.8-1.9-2.4c0-1.7,0.7-2.6,2-2.6c0.5,0,0.9,0.2,1.2,0.4
		v-2.2l0.9-0.4V27H40.9L40.9,27z M40.9,23.2c-0.3-0.2-0.7-0.4-1-0.4c-0.8,0-1.3,0.4-1.3,1.8c0,1.2,0.4,1.7,1.2,1.7
		c0.4,0,0.8-0.2,1.1-0.5V23.2L40.9,23.2z"/>
	<path class="st0" d="M44.1,24.8c0,1.1,0.6,1.6,1.3,1.6c0.5,0,1-0.1,1.3-0.4l0.3,0.7c-0.5,0.3-1,0.5-1.8,0.5c-1.3,0-2.2-0.8-2.2-2.6
		c0-1.7,0.8-2.5,2.1-2.5c1.4,0,1.9,1,1.9,2.7H44.1L44.1,24.8z M45.3,22.8c-0.7,0-1.1,0.4-1.1,1.3h2.2C46.3,23.3,45.9,22.8,45.3,22.8
		L45.3,22.8z"/>
	<path class="st0" d="M50,27.1c-0.6,0-1.1-0.1-1.6-0.3l0.2-0.8c0.5,0.2,0.9,0.3,1.4,0.3c0.7,0,1-0.3,1-0.7c0-0.3-0.1-0.5-0.8-0.8
		l-0.4-0.2c-0.8-0.3-1.2-0.7-1.2-1.3c0-0.9,0.7-1.4,1.8-1.4c0.6,0,0.9,0.1,1.4,0.3l-0.3,0.7c-0.4-0.2-0.7-0.3-1.2-0.3
		c-0.7,0-0.9,0.2-0.9,0.5c0,0.3,0.2,0.5,0.8,0.7l0.4,0.2c0.8,0.3,1.2,0.7,1.2,1.3C51.9,26.6,51.2,27.1,50,27.1L50,27.1z"/>
	<path class="st0" d="M57.4,27.1c-1.4,0-2.1-0.8-2.1-2.5c0-1.7,0.8-2.6,2.1-2.6c1.4,0,2.1,0.8,2.1,2.4
		C59.6,26.2,58.8,27.1,57.4,27.1L57.4,27.1z M57.5,22.8c-0.8,0-1.3,0.4-1.3,1.8c0,1.3,0.4,1.7,1.2,1.7c0.8,0,1.3-0.5,1.3-1.9
		C58.7,23.3,58.2,22.8,57.5,22.8L57.5,22.8z"/>
	<path class="st0" d="M63.5,23.1c-0.2-0.1-0.3-0.1-0.6-0.1c-0.3,0-0.7,0.2-0.9,0.7V27H61v-4.9h0.9v0.7c0.3-0.5,0.7-0.8,1.1-0.8
		c0.3,0,0.6,0.1,0.7,0.2L63.5,23.1L63.5,23.1z"/>
	<path class="st0" d="M66.2,29.1c-0.3,0-0.6-0.1-0.9-0.2l-0.2-0.8c0.3,0.1,0.7,0.2,1,0.2c0.9,0,1.4-0.6,1.4-1.5v-0.4
		c-0.3,0.3-0.8,0.6-1.3,0.6c-1.2,0-1.9-0.7-1.9-2.4c0-1.7,0.7-2.5,2-2.5c0.5,0,0.9,0.2,1.2,0.4v-0.3h0.9v4.5
		C68.5,28.3,67.5,29.1,66.2,29.1L66.2,29.1z M67.6,23.2c-0.3-0.2-0.7-0.4-1-0.4c-0.8,0-1.3,0.4-1.3,1.7c0,1.2,0.4,1.7,1.2,1.7
		c0.4,0,0.8-0.2,1.1-0.5V23.2L67.6,23.2z"/>
	<path class="st0" d="M72.7,27v-0.4c-0.3,0.4-0.8,0.5-1.4,0.5c-0.8,0-1.4-0.6-1.4-1.4c0-1,0.7-1.5,1.9-1.5c0.3,0,0.6,0,0.9,0.1v-0.4
		c0-0.7-0.3-1-1-1c-0.4,0-0.8,0.1-1.1,0.3l-0.3-0.7c0.4-0.3,1-0.5,1.6-0.5c1.1,0,1.8,0.5,1.8,1.7V27H72.7L72.7,27z M72.7,24.9
		c-0.3-0.1-0.5-0.1-0.8-0.1c-0.7,0-1.1,0.3-1.1,0.8c0,0.5,0.3,0.8,0.9,0.8c0.4,0,0.8-0.2,1-0.4V24.9L72.7,24.9z"/>
	<path class="st0" d="M78.3,27v-3.2c0-0.7-0.4-1-1-1c-0.4,0-0.8,0.2-1.1,0.5V27h-0.9v-4.9h0.9v0.5c0.3-0.4,0.8-0.6,1.4-0.6
		c1.2,0,1.6,0.7,1.6,1.6V27H78.3L78.3,27z"/>
	<path class="st0" d="M81.3,21.1c-0.3,0-0.6-0.2-0.6-0.6c0-0.4,0.3-0.6,0.6-0.6c0.3,0,0.6,0.2,0.6,0.6
		C81.9,20.8,81.6,21.1,81.3,21.1L81.3,21.1z M80.9,27v-4.9h0.9V27H80.9L80.9,27z"/>
	<path class="st0" d="M84.9,27.1c-0.6,0-1.1-0.1-1.6-0.3l0.2-0.8c0.5,0.2,0.9,0.3,1.4,0.3c0.7,0,1-0.3,1-0.7c0-0.3-0.1-0.5-0.8-0.8
		l-0.4-0.2c-0.8-0.3-1.2-0.7-1.2-1.3c0-0.9,0.7-1.4,1.8-1.4c0.6,0,0.9,0.1,1.4,0.3l-0.3,0.7c-0.4-0.2-0.7-0.3-1.2-0.3
		c-0.7,0-0.9,0.2-0.9,0.5c0,0.3,0.2,0.5,0.8,0.7l0.4,0.2c0.8,0.3,1.2,0.7,1.2,1.3C86.7,26.6,86,27.1,84.9,27.1L84.9,27.1z"/>
	<path class="st0" d="M90.7,27v-0.4c-0.3,0.4-0.8,0.5-1.4,0.5c-0.8,0-1.4-0.6-1.4-1.4c0-1,0.7-1.5,1.9-1.5c0.3,0,0.6,0,0.9,0.1v-0.4
		c0-0.7-0.3-1-1-1c-0.4,0-0.8,0.1-1.1,0.3l-0.3-0.7c0.4-0.3,1-0.5,1.6-0.5c1.1,0,1.8,0.5,1.8,1.7V27H90.7L90.7,27z M90.7,24.9
		c-0.3-0.1-0.5-0.1-0.8-0.1c-0.7,0-1.1,0.3-1.1,0.8c0,0.5,0.3,0.8,0.9,0.8c0.4,0,0.8-0.2,1-0.4V24.9L90.7,24.9z"/>
	<path class="st0" d="M94.9,27.1c-0.9,0-1.5-0.5-1.5-1.6v-2.6h-0.8v-0.8h0.8v-0.8l0.9-0.4v1.2H96v0.8h-1.6v2.5
		c0,0.7,0.2,0.9,0.7,0.9c0.3,0,0.6-0.1,0.8-0.2l0.3,0.7C95.8,27,95.4,27.1,94.9,27.1L94.9,27.1z"/>
	<path class="st0" d="M97.8,21.1c-0.3,0-0.6-0.2-0.6-0.6c0-0.4,0.3-0.6,0.6-0.6c0.3,0,0.6,0.2,0.6,0.6
		C98.4,20.8,98.1,21.1,97.8,21.1L97.8,21.1z M97.3,27v-4.9h0.9V27H97.3L97.3,27z"/>
	<path class="st0" d="M101.8,27.1c-1.4,0-2.1-0.8-2.1-2.5c0-1.7,0.8-2.6,2.1-2.6c1.4,0,2.1,0.8,2.1,2.4
		C104,26.2,103.2,27.1,101.8,27.1L101.8,27.1z M101.9,22.8c-0.8,0-1.3,0.4-1.3,1.8c0,1.3,0.4,1.7,1.2,1.7c0.8,0,1.3-0.5,1.3-1.9
		C103.1,23.3,102.6,22.8,101.9,22.8L101.9,22.8z"/>
	<path class="st0" d="M108.5,27v-3.2c0-0.7-0.4-1-1-1c-0.4,0-0.8,0.2-1.1,0.5V27h-0.9v-4.9h0.9v0.5c0.3-0.4,0.8-0.6,1.4-0.6
		c1.2,0,1.6,0.7,1.6,1.6V27H108.5L108.5,27z"/>
	<path class="st0" d="M112.4,27.1c-0.6,0-1.1-0.1-1.6-0.3l0.2-0.8c0.5,0.2,0.9,0.3,1.4,0.3c0.7,0,1-0.3,1-0.7c0-0.3-0.1-0.5-0.8-0.8
		l-0.4-0.2c-0.8-0.3-1.2-0.7-1.2-1.3c0-0.9,0.7-1.4,1.8-1.4c0.6,0,0.9,0.1,1.4,0.3l-0.3,0.7c-0.4-0.2-0.7-0.3-1.2-0.3
		c-0.7,0-0.9,0.2-0.9,0.5c0,0.3,0.2,0.5,0.8,0.7l0.4,0.2c0.8,0.3,1.2,0.7,1.2,1.3C114.3,26.6,113.6,27.1,112.4,27.1L112.4,27.1z"/>
	<path class="st0" d="M120.9,27v-0.5c-0.3,0.3-0.8,0.6-1.3,0.6c-1.3,0-1.9-0.8-1.9-2.4c0-1.7,0.7-2.6,2-2.6c0.5,0,0.9,0.2,1.2,0.4
		v-2.2l0.9-0.4V27H120.9L120.9,27z M120.9,23.2c-0.3-0.2-0.7-0.4-1-0.4c-0.8,0-1.3,0.4-1.3,1.8c0,1.2,0.4,1.7,1.2,1.7
		c0.4,0,0.8-0.2,1.1-0.5V23.2L120.9,23.2z"/>
	<path class="st0" d="M124.2,24.8c0,1.1,0.6,1.6,1.3,1.6c0.5,0,1-0.1,1.3-0.4l0.3,0.7c-0.5,0.3-1,0.5-1.8,0.5
		c-1.3,0-2.2-0.8-2.2-2.6c0-1.7,0.8-2.5,2.1-2.5c1.4,0,1.9,1,1.9,2.7H124.2L124.2,24.8z M125.3,22.8c-0.7,0-1.1,0.4-1.1,1.3h2.2
		C126.3,23.3,125.9,22.8,125.3,22.8L125.3,22.8z"/>
	<path class="st0" d="M130.1,27.1c-0.6,0-1.1-0.1-1.6-0.3l0.2-0.8c0.5,0.2,0.9,0.3,1.4,0.3c0.7,0,1-0.3,1-0.7c0-0.3-0.1-0.5-0.8-0.8
		l-0.4-0.2c-0.8-0.3-1.2-0.7-1.2-1.3c0-0.9,0.7-1.4,1.8-1.4c0.6,0,0.9,0.1,1.4,0.3l-0.3,0.7c-0.4-0.2-0.7-0.3-1.2-0.3
		c-0.7,0-0.9,0.2-0.9,0.5c0,0.3,0.2,0.5,0.8,0.7l0.4,0.2c0.8,0.3,1.2,0.7,1.2,1.3C131.9,26.6,131.2,27.1,130.1,27.1L130.1,27.1z"/>
	<path class="st0" d="M137.4,27.1c-1.3,0-2-0.9-2-2.5c0-1.7,0.9-2.6,2.1-2.6c0.6,0,1.1,0.1,1.4,0.4l-0.2,0.7
		c-0.4-0.2-0.7-0.3-1.1-0.3c-0.7,0-1.2,0.6-1.2,1.8c0,1.2,0.4,1.7,1.2,1.7c0.5,0,0.9-0.1,1.2-0.4l0.3,0.7
		C138.5,27,138.1,27.1,137.4,27.1L137.4,27.1z"/>
	<path class="st0" d="M142,27.1c-1.4,0-2.1-0.8-2.1-2.5c0-1.7,0.8-2.6,2.1-2.6c1.4,0,2.1,0.8,2.1,2.4
		C144.2,26.2,143.4,27.1,142,27.1L142,27.1z M142.1,22.8c-0.8,0-1.3,0.4-1.3,1.8c0,1.3,0.4,1.7,1.2,1.7c0.8,0,1.3-0.5,1.3-1.9
		C143.3,23.3,142.8,22.8,142.1,22.8L142.1,22.8z"/>
	<path class="st0" d="M148.7,27v-3.2c0-0.7-0.4-1-1-1c-0.4,0-0.8,0.2-1.1,0.5V27h-0.9v-4.9h0.9v0.5c0.3-0.4,0.8-0.6,1.4-0.6
		c1.2,0,1.6,0.7,1.6,1.6V27H148.7L148.7,27z"/>
	<path class="st0" d="M152.6,27.1c-0.6,0-1.1-0.1-1.6-0.3l0.2-0.8c0.5,0.2,0.9,0.3,1.4,0.3c0.7,0,1-0.3,1-0.7c0-0.3-0.1-0.5-0.8-0.8
		l-0.4-0.2c-0.8-0.3-1.2-0.7-1.2-1.3c0-0.9,0.7-1.4,1.8-1.4c0.6,0,0.9,0.1,1.4,0.3l-0.3,0.7c-0.4-0.2-0.7-0.3-1.2-0.3
		c-0.7,0-0.9,0.2-0.9,0.5c0,0.3,0.2,0.5,0.8,0.7l0.4,0.2c0.8,0.3,1.2,0.7,1.2,1.3C154.4,26.6,153.8,27.1,152.6,27.1L152.6,27.1z"/>
	<path class="st0" d="M157.9,27.1c-1.4,0-2.1-0.8-2.1-2.5c0-1.7,0.8-2.6,2.1-2.6c1.4,0,2.1,0.8,2.1,2.4
		C160,26.2,159.2,27.1,157.9,27.1L157.9,27.1z M157.9,22.8c-0.8,0-1.3,0.4-1.3,1.8c0,1.3,0.4,1.7,1.2,1.7c0.8,0,1.3-0.5,1.3-1.9
		C159.1,23.3,158.6,22.8,157.9,22.8L157.9,22.8z"/>
	<path class="st0" d="M167.3,27v-3.2c0-0.7-0.4-1-1-1c-0.4,0-0.8,0.2-1.1,0.5V27h-0.9v-3.2c0-0.6-0.4-1-1-1c-0.4,0-0.8,0.2-1,0.5V27
		h-0.9v-4.9h0.9v0.5c0.3-0.4,0.8-0.6,1.3-0.6c0.7,0,1.2,0.3,1.4,0.8c0.4-0.4,0.8-0.8,1.6-0.8c1.1,0,1.6,0.7,1.6,1.6V27H167.3
		L167.3,27z"/>
	<path class="st0" d="M175.7,27v-3.2c0-0.7-0.4-1-1-1c-0.4,0-0.8,0.2-1.1,0.5V27h-0.9v-3.2c0-0.6-0.4-1-1-1c-0.4,0-0.8,0.2-1,0.5V27
		h-0.9v-4.9h0.9v0.5c0.3-0.4,0.8-0.6,1.3-0.6c0.7,0,1.2,0.3,1.4,0.8c0.4-0.4,0.8-0.8,1.6-0.8c1.1,0,1.6,0.7,1.6,1.6V27H175.7
		L175.7,27z"/>
	<path class="st0" d="M180.7,27v-0.4c-0.3,0.4-0.8,0.5-1.4,0.5c-0.8,0-1.4-0.6-1.4-1.4c0-1,0.7-1.5,1.9-1.5c0.3,0,0.6,0,0.9,0.1
		v-0.4c0-0.7-0.3-1-1-1c-0.4,0-0.8,0.1-1.1,0.3l-0.3-0.7c0.4-0.3,1-0.5,1.6-0.5c1.1,0,1.8,0.5,1.8,1.7V27H180.7L180.7,27z
		 M180.7,24.9c-0.3-0.1-0.5-0.1-0.8-0.1c-0.7,0-1.1,0.3-1.1,0.8c0,0.5,0.3,0.8,0.9,0.8c0.4,0,0.8-0.2,1-0.4V24.9L180.7,24.9z"/>
	<path class="st0" d="M185,27.1c-0.9,0-1.5-0.5-1.5-1.6v-2.6h-0.8v-0.8h0.8v-0.8l0.9-0.4v1.2h1.6v0.8h-1.6v2.5
		c0,0.7,0.2,0.9,0.7,0.9c0.3,0,0.6-0.1,0.8-0.2l0.3,0.7C185.9,27,185.5,27.1,185,27.1L185,27.1z"/>
	<path class="st0" d="M188,24.8c0,1.1,0.6,1.6,1.3,1.6c0.5,0,1-0.1,1.3-0.4l0.3,0.7c-0.5,0.3-1,0.5-1.8,0.5c-1.3,0-2.2-0.8-2.2-2.6
		c0-1.7,0.8-2.5,2.1-2.5c1.4,0,1.9,1,1.9,2.7H188L188,24.8z M189.2,22.8c-0.7,0-1.1,0.4-1.1,1.3h2.2
		C190.2,23.3,189.8,22.8,189.2,22.8L189.2,22.8z"/>
	<path class="st0" d="M195.6,27v-0.5c-0.3,0.4-0.8,0.6-1.4,0.6c-1.2,0-1.6-0.7-1.6-1.6v-3.3h0.9v3.2c0,0.6,0.4,1,1.1,1
		c0.4,0,0.8-0.2,1.1-0.5v-3.7h0.9V27H195.6L195.6,27z"/>
	<path class="st0" d="M200.7,23.1c-0.2-0.1-0.3-0.1-0.6-0.1c-0.3,0-0.7,0.2-0.9,0.7V27h-0.9v-4.9h0.9v0.7c0.3-0.5,0.7-0.8,1.1-0.8
		c0.3,0,0.6,0.1,0.7,0.2L200.7,23.1L200.7,23.1z"/>
	<path class="st0" d="M203.2,27.1c-0.6,0-1.1-0.1-1.6-0.3l0.2-0.8c0.5,0.2,0.9,0.3,1.4,0.3c0.7,0,1-0.3,1-0.7c0-0.3-0.1-0.5-0.8-0.8
		l-0.4-0.2c-0.8-0.3-1.2-0.7-1.2-1.3c0-0.9,0.7-1.4,1.8-1.4c0.6,0,0.9,0.1,1.4,0.3l-0.3,0.7c-0.4-0.2-0.7-0.3-1.2-0.3
		c-0.7,0-0.9,0.2-0.9,0.5c0,0.3,0.2,0.5,0.8,0.7l0.4,0.2c0.8,0.3,1.2,0.7,1.2,1.3C205.1,26.6,204.4,27.1,203.2,27.1L203.2,27.1z"/>
	<path class="st0" d="M5.2,39.6L4.7,38H2.4L2,39.6H1l2.1-6.5h1l2.1,6.5H5.2L5.2,39.6z M3.6,34.1l-0.9,3.1h1.8L3.6,34.1L3.6,34.1z"/>
	<polygon class="st0" points="7.5,39.6 7.5,32.9 8.4,32.5 8.4,39.6 7.5,39.6 	"/>
	<polygon class="st0" points="10.1,39.6 10.1,32.9 11,32.5 11,39.6 10.1,39.6 	"/>
	<path class="st0" d="M13.2,33.7c-0.3,0-0.6-0.2-0.6-0.6c0-0.4,0.3-0.6,0.6-0.6c0.3,0,0.6,0.2,0.6,0.6
		C13.8,33.4,13.5,33.7,13.2,33.7L13.2,33.7z M12.7,39.6v-4.9h0.9v4.9H12.7L12.7,39.6z"/>
	<path class="st0" d="M17.8,39.6v-0.4c-0.3,0.4-0.8,0.5-1.4,0.5c-0.8,0-1.4-0.6-1.4-1.4c0-1,0.7-1.5,1.9-1.5c0.3,0,0.6,0,0.9,0.1
		v-0.4c0-0.7-0.3-1-1-1c-0.4,0-0.8,0.1-1.1,0.3l-0.3-0.7c0.4-0.3,1-0.5,1.6-0.5c1.1,0,1.8,0.5,1.8,1.7v3.3H17.8L17.8,39.6z
		 M17.8,37.5c-0.3-0.1-0.5-0.1-0.8-0.1c-0.7,0-1.1,0.3-1.1,0.8c0,0.5,0.3,0.8,0.9,0.8c0.4,0,0.8-0.2,1-0.4V37.5L17.8,37.5z"/>
	<path class="st0" d="M23.4,39.6v-3.2c0-0.7-0.4-1-1-1c-0.4,0-0.8,0.2-1.1,0.5v3.7h-0.9v-4.9h0.9v0.5c0.3-0.4,0.8-0.6,1.4-0.6
		c1.2,0,1.6,0.7,1.6,1.6v3.4H23.4L23.4,39.6z"/>
	<polygon class="st0" points="25.6,39.6 25.6,38.9 28.4,35.5 25.7,35.5 25.7,34.7 29.5,34.7 29.5,35.5 26.7,38.9 29.6,38.9 
		29.6,39.6 25.6,39.6 	"/>
	<path class="st0" d="M36,39.6v-0.5c-0.3,0.3-0.8,0.6-1.3,0.6c-1.3,0-1.9-0.8-1.9-2.4c0-1.7,0.7-2.6,2-2.6c0.5,0,0.9,0.2,1.2,0.4
		v-2.2l0.9-0.4v7.2H36L36,39.6z M36,35.8c-0.3-0.2-0.7-0.4-1-0.4c-0.8,0-1.3,0.4-1.3,1.8c0,1.2,0.4,1.7,1.2,1.7
		c0.4,0,0.8-0.2,1.1-0.5V35.8L36,35.8z"/>
	<path class="st0" d="M39.2,37.4c0,1.1,0.6,1.6,1.3,1.6c0.5,0,1-0.1,1.3-0.4l0.3,0.7c-0.5,0.3-1,0.5-1.8,0.5c-1.3,0-2.2-0.8-2.2-2.6
		c0-1.7,0.8-2.5,2.1-2.5c1.4,0,1.9,1,1.9,2.7H39.2L39.2,37.4z M40.4,35.4c-0.7,0-1.1,0.4-1.1,1.3h2.2C41.4,35.9,41,35.4,40.4,35.4
		L40.4,35.4z"/>
	<path class="st0" d="M46.2,35.7c-0.2-0.1-0.3-0.1-0.6-0.1c-0.3,0-0.7,0.2-0.9,0.7v3.4h-0.9v-4.9h0.9v0.7c0.3-0.5,0.7-0.8,1.1-0.8
		c0.3,0,0.6,0.1,0.7,0.2L46.2,35.7L46.2,35.7z"/>
	<polygon class="st0" points="53.4,39.6 51.3,36.7 50.7,37.4 50.7,39.6 49.8,39.6 49.8,33.1 50.7,33.1 50.7,36.2 53.3,33.1 
		54.4,33.1 51.9,36 54.6,39.6 53.4,39.6 	"/>
	<path class="st0" d="M57.5,39.7c-1.4,0-2.1-0.8-2.1-2.5c0-1.7,0.8-2.6,2.1-2.6c1.4,0,2.1,0.8,2.1,2.4
		C59.7,38.8,58.9,39.7,57.5,39.7L57.5,39.7z M57.6,35.4c-0.8,0-1.3,0.4-1.3,1.8c0,1.3,0.4,1.7,1.2,1.7c0.8,0,1.3-0.5,1.3-1.9
		C58.7,35.9,58.3,35.4,57.6,35.4L57.6,35.4z"/>
	<path class="st0" d="M64.2,39.6v-3.2c0-0.7-0.4-1-1.1-1c-0.4,0-0.8,0.2-1.1,0.5v3.7h-0.9v-4.9H62v0.5c0.3-0.4,0.8-0.6,1.4-0.6
		c1.2,0,1.6,0.7,1.6,1.6v3.4H64.2L64.2,39.6z"/>
	<path class="st0" d="M68.1,39.7c-0.6,0-1.1-0.1-1.6-0.3l0.2-0.8c0.5,0.2,0.9,0.3,1.4,0.3c0.7,0,1-0.3,1-0.7c0-0.3-0.1-0.5-0.8-0.8
		l-0.4-0.2c-0.8-0.3-1.2-0.7-1.2-1.3c0-0.9,0.7-1.4,1.8-1.4c0.6,0,0.9,0.1,1.4,0.3l-0.3,0.7c-0.4-0.2-0.7-0.3-1.2-0.3
		c-0.7,0-0.9,0.2-0.9,0.5c0,0.3,0.2,0.5,0.8,0.7l0.4,0.2c0.8,0.3,1.2,0.7,1.2,1.3C69.9,39.2,69.3,39.7,68.1,39.7L68.1,39.7z"/>
	<path class="st0" d="M74.5,39.6v-0.5c-0.3,0.4-0.8,0.6-1.4,0.6c-1.2,0-1.6-0.7-1.6-1.6v-3.3h0.9V38c0,0.6,0.4,1,1.1,1
		c0.4,0,0.8-0.2,1.1-0.5v-3.7h0.9v4.9H74.5L74.5,39.6z"/>
	<path class="st0" d="M83,39.6v-3.2c0-0.7-0.4-1-1-1c-0.4,0-0.8,0.2-1.1,0.5v3.7H80v-3.2c0-0.6-0.4-1-1-1c-0.4,0-0.8,0.2-1,0.5v3.7
		h-0.9v-4.9H78v0.5c0.3-0.4,0.8-0.6,1.3-0.6c0.7,0,1.2,0.3,1.4,0.8c0.4-0.4,0.8-0.8,1.5-0.8c1.1,0,1.6,0.7,1.6,1.6v3.4H83L83,39.6z"
		/>
	<path class="st0" d="M86.2,37.4c0,1.1,0.6,1.6,1.3,1.6c0.5,0,1-0.1,1.3-0.4l0.3,0.7c-0.5,0.3-1,0.5-1.8,0.5c-1.3,0-2.2-0.8-2.2-2.6
		c0-1.7,0.8-2.5,2.1-2.5c1.4,0,1.9,1,1.9,2.7H86.2L86.2,37.4z M87.3,35.4c-0.7,0-1.1,0.4-1.1,1.3h2.2C88.3,35.9,88,35.4,87.3,35.4
		L87.3,35.4z"/>
	<path class="st0" d="M93.8,39.6v-3.2c0-0.7-0.4-1-1-1c-0.4,0-0.8,0.2-1.1,0.5v3.7h-0.9v-4.9h0.9v0.5c0.3-0.4,0.8-0.6,1.4-0.6
		c1.2,0,1.6,0.7,1.6,1.6v3.4H93.8L93.8,39.6z"/>
	<path class="st0" d="M98,39.7c-0.9,0-1.5-0.5-1.5-1.6v-2.6h-0.8v-0.8h0.8v-0.8l0.9-0.4v1.2h1.6v0.8h-1.6V38c0,0.7,0.2,0.9,0.7,0.9
		c0.3,0,0.6-0.1,0.8-0.2l0.3,0.7C98.9,39.6,98.5,39.7,98,39.7L98,39.7z"/>
	<path class="st0" d="M101.1,37.4c0,1.1,0.6,1.6,1.3,1.6c0.5,0,1-0.1,1.3-0.4l0.3,0.7c-0.5,0.3-1,0.5-1.8,0.5
		c-1.3,0-2.2-0.8-2.2-2.6c0-1.7,0.8-2.5,2.1-2.5c1.4,0,1.9,1,1.9,2.7H101.1L101.1,37.4z M102.2,35.4c-0.7,0-1.1,0.4-1.1,1.3h2.2
		C103.2,35.9,102.9,35.4,102.2,35.4L102.2,35.4z"/>
	<path class="st0" d="M108.7,39.6v-3.2c0-0.7-0.4-1-1-1c-0.4,0-0.8,0.2-1.1,0.5v3.7h-0.9v-4.9h0.9v0.5c0.3-0.4,0.8-0.6,1.4-0.6
		c1.2,0,1.6,0.7,1.6,1.6v3.4H108.7L108.7,39.6z"/>
	<path class="st0" d="M112.6,39.7c-0.6,0-1.1-0.1-1.6-0.3l0.2-0.8c0.5,0.2,0.9,0.3,1.4,0.3c0.7,0,1-0.3,1-0.7c0-0.3-0.1-0.5-0.8-0.8
		l-0.4-0.2c-0.8-0.3-1.2-0.7-1.2-1.3c0-0.9,0.7-1.4,1.8-1.4c0.6,0,0.9,0.1,1.4,0.3l-0.3,0.7c-0.4-0.2-0.7-0.3-1.2-0.3
		c-0.7,0-0.9,0.2-0.9,0.5c0,0.3,0.2,0.5,0.8,0.7l0.4,0.2c0.8,0.3,1.2,0.7,1.2,1.3C114.5,39.2,113.8,39.7,112.6,39.7L112.6,39.7z"/>
	<path class="st0" d="M117.8,39.7c-1.3,0-2-0.9-2-2.5c0-1.7,0.9-2.6,2.1-2.6c0.6,0,1.1,0.1,1.4,0.4l-0.2,0.7
		c-0.4-0.2-0.7-0.3-1.1-0.3c-0.7,0-1.2,0.6-1.2,1.8c0,1.2,0.4,1.7,1.2,1.7c0.5,0,0.9-0.1,1.2-0.4l0.3,0.7
		C118.9,39.6,118.5,39.7,117.8,39.7L117.8,39.7z"/>
	<path class="st0" d="M123.6,39.6v-3.2c0-0.7-0.4-1-1-1c-0.4,0-0.8,0.2-1.1,0.5v3.7h-0.9v-6.7l0.9-0.4v2.7c0.3-0.4,0.8-0.6,1.4-0.6
		c1.2,0,1.6,0.7,1.6,1.6v3.4H123.6L123.6,39.6z"/>
	<path class="st0" d="M129.2,39.6v-0.5c-0.3,0.4-0.8,0.6-1.4,0.6c-1.2,0-1.6-0.7-1.6-1.6v-3.3h0.9V38c0,0.6,0.4,1,1.1,1
		c0.4,0,0.8-0.2,1.1-0.5v-3.7h0.9v4.9H129.2L129.2,39.6z"/>
	<path class="st0" d="M133.5,39.7c-0.9,0-1.5-0.5-1.5-1.6v-2.6h-0.8v-0.8h0.8v-0.8l0.9-0.4v1.2h1.6v0.8H133V38
		c0,0.7,0.2,0.9,0.7,0.9c0.3,0,0.6-0.1,0.8-0.2l0.3,0.7C134.4,39.6,134,39.7,133.5,39.7L133.5,39.7z"/>
	<polygon class="st0" points="135.6,39.6 135.6,38.9 138.3,35.5 135.6,35.5 135.6,34.7 139.4,34.7 139.4,35.5 136.7,38.9 
		139.5,38.9 139.5,39.6 135.6,39.6 	"/>
	<polygon class="st0" points="140.6,37.5 140.6,36.6 143.3,36.6 143.3,37.5 140.6,37.5 	"/>
	<path class="st0" d="M147.2,39.7c-1.6,0-2.6-1.2-2.6-3.3c0-2.4,1-3.4,2.6-3.4c1.6,0,2.6,1.2,2.6,3.3
		C149.8,38.9,148.7,39.7,147.2,39.7L147.2,39.7z M147.1,33.8c-1,0-1.6,0.7-1.6,2.5c0,1.8,0.6,2.5,1.6,2.5c1,0,1.6-0.6,1.6-2.5
		C148.8,34.6,148.2,33.8,147.1,33.8L147.1,33.8z"/>
	<path class="st0" d="M153.7,35.7c-0.2-0.1-0.3-0.1-0.6-0.1c-0.3,0-0.7,0.2-0.9,0.7v3.4h-0.9v-4.9h0.9v0.7c0.3-0.5,0.7-0.8,1.1-0.8
		c0.3,0,0.6,0.1,0.7,0.2L153.7,35.7L153.7,35.7z"/>
	<path class="st0" d="M156.4,41.7c-0.3,0-0.6-0.1-0.9-0.2l-0.2-0.8c0.3,0.1,0.7,0.2,1,0.2c0.9,0,1.4-0.6,1.4-1.5V39
		c-0.3,0.3-0.8,0.6-1.3,0.6c-1.2,0-1.9-0.7-1.9-2.4c0-1.7,0.7-2.5,2-2.5c0.5,0,0.9,0.2,1.2,0.4v-0.3h0.9v4.5
		C158.6,40.8,157.7,41.7,156.4,41.7L156.4,41.7z M157.7,35.8c-0.3-0.2-0.7-0.4-1-0.4c-0.8,0-1.3,0.4-1.3,1.7c0,1.2,0.4,1.7,1.2,1.7
		c0.4,0,0.8-0.2,1.1-0.5V35.8L157.7,35.8z"/>
	<path class="st0" d="M162.8,39.6v-0.4c-0.3,0.4-0.8,0.5-1.4,0.5c-0.8,0-1.4-0.6-1.4-1.4c0-1,0.7-1.5,1.9-1.5c0.3,0,0.6,0,0.9,0.1
		v-0.4c0-0.7-0.3-1-1.1-1c-0.4,0-0.8,0.1-1.1,0.3l-0.3-0.7c0.4-0.3,1-0.5,1.6-0.5c1.1,0,1.8,0.5,1.8,1.7v3.3H162.8L162.8,39.6z
		 M162.8,37.5c-0.3-0.1-0.5-0.1-0.8-0.1c-0.7,0-1.1,0.3-1.1,0.8c0,0.5,0.3,0.8,0.9,0.8c0.4,0,0.8-0.2,1-0.4V37.5L162.8,37.5z"/>
	<path class="st0" d="M168.5,39.6v-3.2c0-0.7-0.4-1-1-1c-0.4,0-0.8,0.2-1.1,0.5v3.7h-0.9v-4.9h0.9v0.5c0.3-0.4,0.8-0.6,1.4-0.6
		c1.2,0,1.6,0.7,1.6,1.6v3.4H168.5L168.5,39.6z"/>
	<path class="st0" d="M171.5,33.7c-0.3,0-0.6-0.2-0.6-0.6c0-0.4,0.3-0.6,0.6-0.6c0.3,0,0.6,0.2,0.6,0.6
		C172.1,33.4,171.8,33.7,171.5,33.7L171.5,33.7z M171,39.6v-4.9h0.9v4.9H171L171,39.6z"/>
	<path class="st0" d="M175,39.7c-0.6,0-1.1-0.1-1.6-0.3l0.2-0.8c0.5,0.2,0.9,0.3,1.4,0.3c0.7,0,1-0.3,1-0.7c0-0.3-0.1-0.5-0.8-0.8
		l-0.4-0.2c-0.8-0.3-1.2-0.7-1.2-1.3c0-0.9,0.7-1.4,1.8-1.4c0.6,0,0.9,0.1,1.4,0.3l-0.3,0.7c-0.4-0.2-0.7-0.3-1.2-0.3
		c-0.7,0-0.9,0.2-0.9,0.5c0,0.3,0.2,0.5,0.8,0.7l0.4,0.2c0.8,0.3,1.2,0.7,1.2,1.3C176.8,39.2,176.2,39.7,175,39.7L175,39.7z"/>
	<path class="st0" d="M180.9,39.6v-0.4c-0.3,0.4-0.8,0.5-1.4,0.5c-0.8,0-1.4-0.6-1.4-1.4c0-1,0.7-1.5,1.9-1.5c0.3,0,0.6,0,0.9,0.1
		v-0.4c0-0.7-0.3-1-1-1c-0.4,0-0.8,0.1-1.1,0.3l-0.3-0.7c0.4-0.3,1-0.5,1.6-0.5c1.1,0,1.8,0.5,1.8,1.7v3.3H180.9L180.9,39.6z
		 M180.9,37.5c-0.3-0.1-0.5-0.1-0.8-0.1c-0.7,0-1.1,0.3-1.1,0.8c0,0.5,0.3,0.8,0.9,0.8c0.4,0,0.8-0.2,1-0.4V37.5L180.9,37.5z"/>
	<path class="st0" d="M185.1,39.7c-0.9,0-1.5-0.5-1.5-1.6v-2.6h-0.8v-0.8h0.8v-0.8l0.9-0.4v1.2h1.6v0.8h-1.6V38
		c0,0.7,0.2,0.9,0.7,0.9c0.3,0,0.6-0.1,0.8-0.2l0.3,0.7C186,39.6,185.6,39.7,185.1,39.7L185.1,39.7z"/>
	<path class="st0" d="M188,33.7c-0.3,0-0.6-0.2-0.6-0.6c0-0.4,0.3-0.6,0.6-0.6c0.3,0,0.6,0.2,0.6,0.6
		C188.6,33.4,188.3,33.7,188,33.7L188,33.7z M187.5,39.6v-4.9h0.9v4.9H187.5L187.5,39.6z"/>
	<path class="st0" d="M192,39.7c-1.4,0-2.1-0.8-2.1-2.5c0-1.7,0.8-2.6,2.1-2.6c1.4,0,2.1,0.8,2.1,2.4
		C194.2,38.8,193.4,39.7,192,39.7L192,39.7z M192.1,35.4c-0.8,0-1.3,0.4-1.3,1.8c0,1.3,0.4,1.7,1.2,1.7c0.8,0,1.3-0.5,1.3-1.9
		C193.2,35.9,192.8,35.4,192.1,35.4L192.1,35.4z"/>
	<path class="st0" d="M198.7,39.6v-3.2c0-0.7-0.4-1-1.1-1c-0.4,0-0.8,0.2-1.1,0.5v3.7h-0.9v-4.9h0.9v0.5c0.3-0.4,0.8-0.6,1.4-0.6
		c1.2,0,1.6,0.7,1.6,1.6v3.4H198.7L198.7,39.6z"/>
	<path class="st0" d="M201.9,37.4c0,1.1,0.6,1.6,1.3,1.6c0.5,0,1-0.1,1.3-0.4l0.3,0.7c-0.5,0.3-1,0.5-1.8,0.5
		c-1.3,0-2.2-0.8-2.2-2.6c0-1.7,0.8-2.5,2.1-2.5c1.4,0,1.9,1,1.9,2.7H201.9L201.9,37.4z M203,35.4c-0.7,0-1.1,0.4-1.1,1.3h2.2
		C204,35.9,203.7,35.4,203,35.4L203,35.4z"/>
	<path class="st0" d="M209.5,39.6v-3.2c0-0.7-0.4-1-1.1-1c-0.4,0-0.8,0.2-1.1,0.5v3.7h-0.9v-4.9h0.9v0.5c0.3-0.4,0.8-0.6,1.4-0.6
		c1.2,0,1.6,0.7,1.6,1.6v3.4H209.5L209.5,39.6z"/>
</g>
<g>
	<path class="st0" d="M231.9,31.3c1.8,0,2.9,1.3,2.9,2.9c0,1.6-1.1,2.8-2.9,2.8c-1.8,0-2.9-1.2-2.9-2.8
		C229,32.6,230,31.3,231.9,31.3L231.9,31.3L231.9,31.3z M239.2,27.8h-4.5V29c-0.9-1.1-2.5-1.7-4-1.7c-3.8,0-6.4,3.1-6.4,6.8
		c0,3.6,2.7,6.8,6.4,6.8c1.5,0,3.1-0.6,3.9-1.8h0v1.4h4.5V27.8L239.2,27.8z"/>
	<path class="st0" d="M251.4,32c-0.7-0.5-1.5-0.9-2.3-0.9c-1.7,0-3.1,1.3-3.1,3.1c0,1.8,1.3,3.1,3.2,3.1c0.8,0,1.7-0.3,2.3-0.9v3.8
		c-1,0.5-2.1,0.7-3.2,0.7c-3.8,0-6.9-2.8-6.9-6.7c0-4.1,3.1-6.9,7.1-6.9c1,0,2.1,0.2,3,0.7V32L251.4,32L251.4,32z"/>
	<path class="st0" d="M262.6,31.1c-0.7-0.4-1.7-0.6-2.4-0.6c-0.5,0-1.4,0.2-1.4,0.9c0,0.9,1.4,1,2,1.1c2.1,0.4,3.7,1.4,3.7,3.8
		c0,3.4-3.1,4.8-6,4.8c-1.8,0-3.6-0.5-5.2-1.5l1.6-3.2c0.9,0.6,2.5,1.3,3.6,1.3c0.6,0,1.4-0.3,1.4-1c0-1-1.4-1-2.8-1.4
		c-1.4-0.4-2.8-1.1-2.8-3.3c0-3.1,2.8-4.5,5.6-4.5c1.4,0,2.9,0.2,4.2,0.8L262.6,31.1L262.6,31.1L262.6,31.1z"/>
	<polygon class="st0" points="271.5,40.5 267,40.5 267,27.8 271.5,27.8 271.5,40.5 	"/>
	<path class="st0" d="M269.1,25.6c2.6,0,4.8-2.1,4.8-4.8c0-2.6-2.1-4.8-4.8-4.8c-2.6,0-4.8,2.1-4.8,4.8
		C264.3,23.5,266.5,25.6,269.1,25.6L269.1,25.6L269.1,25.6z"/>
	<path class="st0" d="M283.2,23.4c0.2-0.1,0,0.8,0.1,0.8c0.3,0,0.2-0.3,0.3-0.4c0.1-0.9,0.3-0.7,0.5-1.2c0.3-0.8,0-1.6,0.3-1.6
		c0.1,0,0,0.5,0.1,0.6c0.1,0.1,0.2-0.4,0.3-0.7c0-0.1,0.4-1.3,0.5-2.2c0.1-0.7,0.1-1.7,0-2.3c0-0.3-0.1-0.7-0.2-1
		c0-0.3-0.1-0.4-0.1-0.6c-0.1-0.3-0.3-0.8-0.6-1.3c-0.1-0.4-0.2,0-0.3-0.2c0-0.2-0.1-0.6-0.2-0.7c-3.1-5.2-9.7-6-13.5-5.8
		c-3.4,0.2-6.4,1-8.4,2c-10.7,5.1-9.3,13.6-7.8,16.1c0.1,0.2,0.4,0.6,0.5,0.7h0.1c0.1-0.1-0.8-1-0.4-1.1c0.1,0,0.1,0.3,0.3,0.3
		c0.1,0-0.4-1-0.2-1.1c0.1,0,0.1,0.4,0.2,0.3c0.1-0.1-0.3-1.6-0.1-1.6c0.1,0,0.1,0.3,0.2,0.2c0.1-0.1,0-0.1,0.1-0.4
		c1.8-6.6,8-9.4,13.3-9.8c4.5-0.3,9.5,1.3,11.5,5.5c0,0.2,0.3,0.1,0.4,0.2c0,0.1-0.2,0.1-0.2,0.1s0.3,0.2,0.2,0.5l0.1,0
		c0,0.3,0.2,0.4,0.2,0.6c0,0.1,0,0.2-0.1,0.2l0.2,0.7c0.1,0.2,0.2,1,0.2,1c0,0,0,0.7,0,1.6c-0.1,1.5-0.5,2.3-0.6,2.7
		c-0.2,0.7-1.2,2.4-1.2,2.4c0.2,0.3,0.6-0.8,0.7-0.8c0.1,0-0.1,0.4,0.1,0.3c0.1,0,0.1-0.3,0.3-0.2c0.2,0.1,0.1-0.6,0.3-0.7
		c0.1,0,0.1,0.5,0.2,0.4c0.1,0,0.1-0.9,0.3-0.9c0.2,0,0,0.4,0,0.6c0,0-0.1,0.1,0.1,0c0.1-0.1,0.1-0.4,0.3-0.3c0,0,0.1-0.4,0.1-0.4
		c0.2-0.2,0,0.3,0.2,0.1c0.1-0.1,0.1-0.3,0.3-0.3c0.2-0.1,0.1-0.9,0.3-0.9c0.1,0,0,0.5,0.1,0.6c0.1,0,0.2-0.1,0.3-0.4
		c0-0.1-0.1-0.6,0.2-0.6c0.2,0,0,0.4,0.1,0.4c0.2,0,0.4-0.9,0.4-0.9C283.1,23.8,283.1,23.4,283.2,23.4L283.2,23.4L283.2,23.4z"/>
	<path class="st1" d="M254.9,23.1c0,0,0.1-0.1,0-0.2c0-0.1-0.1-0.1-0.1-0.1c0,0-0.1,0.1,0,0.2C254.8,23,254.9,23.1,254.9,23.1
		L254.9,23.1L254.9,23.1z"/>
</g>
<g>
	<polygon class="st0" points="367.1,22 368.5,21.7 367.6,25 370.2,28.1 368.8,28.5 366.5,25.6 366.5,25.6 367.4,28.9 366.2,29.2 
		364.4,22.8 365.7,22.4 366.4,25.2 366.4,25.2 367.1,22 	"/>
	<path class="st0" d="M373,26.4c-0.7,0.2-1-0.5-1.4-2.1c-0.4-1.6-0.5-2.4,0.2-2.6c0.7-0.2,1,0.5,1.4,2.1
		C373.6,25.5,373.7,26.2,373,26.4L373,26.4L373,26.4z M373.3,27.4c2-0.5,1.6-2.2,1.2-3.9c-0.5-1.7-0.9-3.3-2.9-2.8
		c-2,0.5-1.6,2.2-1.2,3.9C370.8,26.3,371.3,27.9,373.3,27.4L373.3,27.4L373.3,27.4z"/>
	<polygon class="st0" points="376.8,26.3 375.1,19.9 376.7,19.5 379.5,23.5 379.5,23.5 378.3,19 379.5,18.7 381.2,25.1 379.6,25.6 
		376.7,21.3 376.7,21.3 377.9,26 376.8,26.3 	"/>
	<path class="st0" d="M384.4,24.4c-1.5,0.4-2.1-0.5-2.3-1.6l1.2-0.3c0.2,0.6,0.3,1.1,1,0.9c0.4-0.1,0.5-0.5,0.4-0.9
		c-0.3-1.2-2.8-0.6-3.3-2.5c-0.3-1,0-1.9,1.5-2.3c1.2-0.3,2,0.1,2.2,1.5l-1.2,0.3c-0.1-0.5-0.3-0.9-0.8-0.8
		c-0.4,0.1-0.6,0.4-0.5,0.9c0.3,1.2,2.8,0.4,3.3,2.5C386.4,23.7,385.3,24.2,384.4,24.4L384.4,24.4L384.4,24.4z"/>
	<path class="st0" d="M390.1,15.9l1.2,4.6c0.3,1,0,2.1-1.5,2.5c-1.4,0.4-2.2-0.2-2.5-1.4l-1.2-4.6l1.2-0.3l1.2,4.5
		c0.2,0.8,0.6,1,1.1,0.9c0.5-0.1,0.7-0.6,0.5-1.3l-1.2-4.5L390.1,15.9L390.1,15.9z"/>
	<polygon class="st0" points="393.3,21.9 391.6,15.5 393.5,15 395.6,19.1 395.7,19.1 395.5,14.4 397.4,13.9 399.1,20.3 397.9,20.7 
		396.6,15.7 396.6,15.7 396.8,21 395.6,21.3 393.2,16.6 393.2,16.6 394.5,21.6 393.3,21.9 	"/>
	<polygon class="st0" points="400.6,19.9 398.9,13.5 402.1,12.7 402.4,13.6 400.4,14.2 400.8,15.8 402.7,15.3 402.9,16.3 
		401.1,16.8 401.6,18.6 403.7,18.1 403.9,19.1 400.6,19.9 	"/>
	<polygon class="st0" points="405.2,18.7 403.5,12.3 405.2,11.8 407.9,15.9 408,15.9 406.8,11.4 407.9,11.1 409.6,17.5 408,18 
		405.1,13.7 405.1,13.7 406.4,18.4 405.2,18.7 	"/>
	<polygon class="st0" points="413,9.8 413.3,10.8 411.9,11.2 413.3,16.5 412.1,16.9 410.7,11.5 409.3,11.9 409,10.8 413,9.8 	"/>
	<polygon class="st0" points="415.8,15.9 414.1,9.5 417.3,8.6 417.5,9.6 415.6,10.1 416,11.7 417.8,11.2 418.1,12.2 416.2,12.7 
		416.7,14.6 418.8,14 419.1,15 415.8,15.9 	"/>
	<polygon class="st0" points="420.4,14.7 418.7,8.2 420.3,7.8 423.1,11.8 423.1,11.8 421.9,7.4 423.1,7.1 424.8,13.5 423.2,13.9 
		420.3,9.6 420.3,9.7 421.5,14.3 420.4,14.7 	"/>
	<path class="st0" d="M370.7,38.4c-1.7,0.5-2.3-0.4-2.5-1.6l1.4-0.4c0.2,0.6,0.3,1.1,1.1,0.9c0.5-0.1,0.6-0.5,0.5-0.9
		c-0.3-1.2-3.1-0.5-3.6-2.4c-0.3-1,0-1.9,1.7-2.4c1.3-0.4,2.2,0,2.4,1.4l-1.3,0.4c-0.1-0.5-0.3-0.9-0.9-0.8
		c-0.4,0.1-0.6,0.4-0.5,0.9c0.3,1.2,3.1,0.4,3.6,2.4C372.9,37.6,371.7,38.1,370.7,38.4L370.7,38.4L370.7,38.4z"/>
	<path class="st0" d="M378.8,32.7c-0.5-1.7-0.9-3.3,1.4-3.9c1.4-0.4,2.2,0.2,2.5,1.6l-1.4,0.4c-0.2-0.9-0.5-1.1-0.9-1
		c-0.8,0.2-0.7,0.9-0.2,2.6c0.4,1.6,0.7,2.3,1.5,2.1c0.6-0.2,0.4-1,0.3-1.5l1.4-0.4c0.5,1.7-0.1,2.5-1.4,2.8
		C379.7,36,379.2,34.4,378.8,32.7L378.8,32.7L378.8,32.7z"/>
	<polygon class="st0" points="392.5,28.3 391.9,25.7 393.2,25.4 394.9,31.8 393.6,32.2 392.8,29.3 391.2,29.7 392,32.6 390.6,32.9 
		388.9,26.5 390.3,26.2 391,28.7 392.5,28.3 	"/>
	<path class="st0" d="M404.7,22.3l1.2,4.6c0.3,1,0,2.1-1.7,2.6c-1.5,0.4-2.4-0.2-2.8-1.4l-1.2-4.6l1.4-0.4l1.2,4.5
		c0.2,0.8,0.6,1,1.1,0.9c0.6-0.2,0.8-0.6,0.6-1.3l-1.2-4.5L404.7,22.3L404.7,22.3z"/>
	<polygon class="st0" points="415.5,19.4 415.8,20.5 414.2,20.9 415.7,26.2 414.3,26.6 412.9,21.3 411.3,21.7 411,20.6 415.5,19.4 	
		"/>
	<polygon class="st0" points="421.7,17.8 425.6,16.7 425.9,17.9 424.3,22.9 427.1,22.1 427.4,23.1 423.3,24.2 422.9,23 424.6,18 
		421.9,18.7 421.7,17.8 	"/>
	<g>
		<defs>
			<polygon id="SVGID_1_" points="358.4,0 434.3,0 434.3,44.1 358.4,44.1 358.4,0 			"/>
		</defs>
		<clipPath id="SVGID_2_">
			<use xlink:href="#SVGID_1_"  style="overflow:visible;"/>
		</clipPath>
		<polygon class="st2" points="433.4,25.1 365.8,43.2 359.3,19 426.9,0.9 433.4,25.1 		"/>
	</g>
</g>
<path class="st0" d="M334.8,5.8l-24.6,2.9c-2.2,0-3.9,1.8-3.9,3.9v22.7c0,2.2,1.4,3.5,3.9,3.9l26,4.3l2.5-33.9
	C338.7,7.6,337,5.8,334.8,5.8z M324.3,21.3c-1.9,0-2.9,3.1-3.1,6.5c-1.3,0-2.5-0.1-2.5-1.5c0-0.9,0.7-2.7,0.7-3.9
	c0-0.9-0.4-1.4-1.8-1.4c-0.4,0-0.9,0-1.5,0.1l-0.5,3.9c-0.9,6.9-1,10.9-5.4,10.9l0-0.1c1.5,0,2.8-14,2.8-14
	c-0.7,0.1-1.4,0.2-1.8,0.4c-0.5-0.9,0.6-1.5,2-1.8l0.1-0.8c0.8-4.4,3-8.8,6.6-8.8c1.5,0,3.1,1.1,2.1,2.3c-0.5-0.5-1.8-0.8-2.5-0.8
	c-2.1,0-2.6,3.4-3.1,6.9l-0.1,0.4c0.9-0.2,1.8-0.2,2.3-0.2c1.2,0,3.5,0,3.2,2.3c0.5-1.5,1.6-2.8,2.9-2.8c1.2,0,2.1,1,1,2.8
	C325.2,21.5,324.8,21.3,324.3,21.3z M332.9,21.3c-0.2-0.3-0.8-0.6-1.5-0.6c-1.4,0-2.7,2.5-2.7,4.3c0,0.9,0.1,1.4,1,1.4
	c0.8,0,2.2-0.9,2.7-1.5c0.3,0.1,0.6,0.5,0.6,0.7c0,1-2.6,2.3-4.2,2.3c-1.6,0-3.1-0.5-3.1-2.3c0-2.8,2.3-6.4,6.1-6.4
	c1.1,0,1.9,0.6,1.9,1.2C333.7,20.7,333.2,21.1,332.9,21.3z"/>
</svg>
